<svg id="logosandtypes_com" data-name="logosandtypes com" xmlns="http://www.w3.org/2000/svg" viewBox="0 0 150 150"><defs><style>.cls-1{fill:none;}.cls-2{fill:#191914;}</style></defs><path class="cls-1" d="M0,0H150V150H0Z"/><path id="path21345" class="cls-2" d="M124,104.68a1.54,1.54,0,0,0-2.17-.9c-12.13,17.74-25,26.79-55.23,26.79h-12l67-115.34V14.15H60.23c-5.07,0-13.22-.18-18.65-.54C37.77,24.47,33.07,35.15,28,46.2a1.75,1.75,0,0,0,2.17.9C41.76,30.63,50.27,20.85,83,20.85h8.87l-67,115.34v.9H89.2c6.88,0,13.76.18,20.46.55,4.16-11,9-21.91,14.3-33ZM106.58,20.85,43.21,130.57H40L103.32,20.85Z"/></svg>