<?xml version="1.0" encoding="UTF-8"?>
<svg id="uuid-0bac64e0-91b0-443b-a004-07fd00eb68ce" data-name="Ebene 1" xmlns="http://www.w3.org/2000/svg" width="1920" height="1080" viewBox="0 0 1920 1080">
  <defs>
    <style>
      .uuid-88e368a1-8eef-4fde-b73e-fac9a92f1932 {
        fill: #e49d3a;
      }

      .uuid-342b504b-d7a5-446b-a7ab-0202e809517a {
        fill: #9747ff;
      }
    </style>
  </defs>
  <g>
    <path d="m1499.37,263.24l-.02,4.72h-22.45v-36h22.45v4.72h-16.58v10.85h13.25v4.58h-13.25v11.12h16.6Z"/>
    <path d="m1510.02,230.96v37h-5.38v-37h5.38Z"/>
    <path d="m1524.84,268.36c-2.12,0-3.75-.6-4.89-1.79-1.14-1.19-1.71-2.87-1.71-5.04v-14.85h-2.8c-.3,0-.56-.1-.78-.29s-.33-.48-.33-.86v-2.17l4.12-.6,1.18-7.38c.08-.28.22-.51.42-.69s.47-.26.8-.26h2.75v8.38h7.08v3.88h-7.08v14.48c0,.92.22,1.62.67,2.1s1.05.73,1.8.73c.42,0,.78-.05,1.08-.16s.56-.22.78-.35c.22-.12.4-.24.56-.35.16-.11.31-.16.46-.16.3,0,.54.17.73.5l1.6,2.62c-.83.73-1.82,1.3-2.95,1.69-1.13.39-2.3.59-3.5.59Z"/>
    <path d="m1538.67,255.64c.07,1.45.29,2.7.67,3.76.38,1.06.9,1.94,1.54,2.64s1.41,1.22,2.3,1.56c.89.34,1.89.51,2.99.51s1.96-.12,2.72-.36c.77-.24,1.43-.51,2-.8.57-.29,1.05-.56,1.45-.8.4-.24.77-.36,1.1-.36.43,0,.77.17,1,.5l1.53,1.97c-.63.75-1.35,1.38-2.15,1.9-.8.52-1.65.94-2.55,1.26-.9.32-1.83.56-2.77.7-.95.14-1.88.21-2.78.21-1.77,0-3.4-.3-4.91-.89-1.51-.59-2.82-1.46-3.93-2.61s-1.97-2.58-2.6-4.28c-.62-1.7-.94-3.66-.94-5.88,0-1.77.28-3.42.84-4.95.56-1.53,1.36-2.87,2.4-4,1.04-1.13,2.31-2.03,3.8-2.69,1.49-.66,3.18-.99,5.06-.99,1.57,0,3.02.25,4.35.76,1.33.51,2.48,1.25,3.45,2.24.97.98,1.72,2.19,2.26,3.61.54,1.42.81,3.05.81,4.86,0,.83-.09,1.39-.27,1.67-.18.28-.52.42-1,.42h-16.38Zm12.83-3.3c0-.9-.13-1.74-.39-2.51-.26-.77-.64-1.45-1.14-2.02-.5-.58-1.12-1.03-1.86-1.35-.74-.33-1.6-.49-2.56-.49-1.95,0-3.48.56-4.6,1.67-1.12,1.12-1.82,2.68-2.12,4.7h12.68Z"/>
    <path d="m1566.39,247.19c.8-1.62,1.77-2.89,2.9-3.81,1.13-.92,2.49-1.39,4.08-1.39.55,0,1.07.06,1.55.19s.92.31,1.3.56l-.38,4.05c-.07.28-.17.48-.31.59-.14.11-.33.16-.56.16-.25,0-.61-.05-1.08-.14-.47-.09-.96-.14-1.48-.14-.75,0-1.41.11-1.99.33s-1.09.53-1.55.95c-.46.42-.86.92-1.21,1.52-.35.6-.67,1.28-.97,2.05v15.85h-5.38v-25.5h3.12c.57,0,.96.1,1.17.31.22.21.37.57.45,1.09l.33,3.32Z"/>
    <path d="m1584.79,245.84c.55-.57,1.12-1.08,1.71-1.54.59-.46,1.22-.85,1.89-1.19.67-.33,1.38-.59,2.12-.78s1.57-.28,2.45-.28c1.4,0,2.63.23,3.69.7,1.06.47,1.95,1.12,2.67,1.98.73.85,1.27,1.87,1.64,3.06s.55,2.5.55,3.94v16.22h-5.35v-16.22c0-1.72-.4-3.05-1.19-4-.79-.95-2-1.43-3.61-1.43-1.2,0-2.31.28-3.34.83-1.02.55-1.99,1.3-2.89,2.25v18.58h-5.38v-25.5h3.25c.73,0,1.2.34,1.4,1.03l.38,2.35Z"/>
  </g>
  <g>
    <path d="m330.19,247.36h1.67c.63,0,1.15-.09,1.55-.26s.76-.45,1.08-.84l10.9-13c.38-.48.78-.82,1.19-1.01.41-.19.92-.29,1.54-.29h5l-12.88,15.2c-.35.43-.69.8-1.01,1.09-.33.29-.68.53-1.06.71.5.18.95.44,1.35.76.4.33.79.75,1.18,1.29l13.35,16.95h-5.1c-.37,0-.68-.03-.94-.08-.26-.05-.48-.12-.68-.22-.19-.1-.36-.23-.5-.38-.14-.15-.27-.32-.39-.5l-11.25-13.75c-.17-.22-.33-.4-.5-.55-.17-.15-.36-.28-.59-.38-.22-.1-.48-.17-.76-.21-.28-.04-.62-.06-1-.06h-2.15v16.12h-5.85v-36h5.85v15.4Z"/>
    <path d="m363.56,234.76c0,.48-.1.94-.29,1.38-.19.43-.45.81-.79,1.14-.33.33-.72.58-1.16.78s-.91.29-1.41.29-.94-.1-1.36-.29-.8-.45-1.11-.78c-.32-.33-.57-.7-.76-1.14-.19-.43-.29-.89-.29-1.38s.1-.97.29-1.4c.19-.43.45-.81.76-1.14.32-.33.69-.58,1.11-.78.42-.19.88-.29,1.36-.29s.97.1,1.41.29c.44.19.83.45,1.16.78.33.33.6.7.79,1.14s.29.9.29,1.4Zm-.9,7.7v25.5h-5.38v-25.5h5.38Z"/>
    <path d="m377.61,268.36c-2.12,0-3.75-.6-4.89-1.79-1.14-1.19-1.71-2.87-1.71-5.04v-14.85h-2.8c-.3,0-.56-.1-.77-.29-.22-.19-.33-.48-.33-.86v-2.17l4.12-.6,1.17-7.38c.08-.28.22-.51.42-.69s.47-.26.8-.26h2.75v8.38h7.08v3.88h-7.08v14.48c0,.92.23,1.62.68,2.1.45.48,1.05.73,1.8.73.42,0,.77-.05,1.08-.16.3-.11.56-.22.77-.35s.4-.24.56-.35c.16-.11.31-.16.46-.16.3,0,.54.17.72.5l1.6,2.62c-.83.73-1.82,1.3-2.95,1.69-1.13.39-2.3.59-3.5.59Z"/>
    <path d="m387.09,246.01c2.88-2.68,6.32-4.02,10.3-4.02,1.47,0,2.77.24,3.91.71,1.14.48,2.1,1.15,2.88,2.01.78.87,1.37,1.9,1.78,3.09s.61,2.51.61,3.96v16.2h-2.4c-.52,0-.91-.08-1.18-.24s-.49-.48-.67-.96l-.52-2.08c-.65.58-1.29,1.1-1.93,1.56-.63.46-1.29.85-1.96,1.16s-1.4.55-2.17.71c-.78.16-1.63.24-2.56.24-1.03,0-2-.14-2.89-.43s-1.66-.71-2.31-1.29c-.65-.58-1.16-1.29-1.54-2.14-.38-.85-.56-1.85-.56-3,0-.98.26-1.94.79-2.88.52-.93,1.39-1.77,2.6-2.51,1.21-.74,2.8-1.35,4.78-1.84,1.97-.48,4.41-.76,7.31-.83v-1.7c0-1.83-.39-3.2-1.17-4.1-.78-.9-1.93-1.35-3.45-1.35-1.03,0-1.9.13-2.6.39-.7.26-1.31.54-1.82.84-.52.3-.98.58-1.38.84-.4.26-.83.39-1.28.39-.37,0-.68-.1-.94-.29-.26-.19-.47-.43-.64-.71l-.97-1.75Zm14.25,10.8c-1.92.07-3.53.22-4.85.46-1.32.24-2.38.55-3.2.92-.82.38-1.4.82-1.76,1.34s-.54,1.08-.54,1.7.1,1.11.29,1.54c.19.42.46.78.8,1.05.34.28.74.48,1.2.6.46.12.96.19,1.51.19,1.4,0,2.6-.26,3.61-.79,1.01-.52,1.99-1.29,2.94-2.29v-4.73Z"/>
    <path d="m428.06,247.09c-.13.23-.28.4-.45.5-.17.1-.38.15-.62.15-.28,0-.59-.09-.93-.26-.33-.17-.72-.37-1.17-.59-.45-.22-.98-.41-1.59-.59-.61-.18-1.32-.26-2.14-.26-.67,0-1.27.08-1.81.24-.54.16-1,.38-1.38.67-.38.29-.66.63-.86,1.03-.2.39-.3.81-.3,1.26,0,.6.18,1.1.55,1.5.37.4.85.75,1.45,1.04.6.29,1.28.55,2.05.79.77.23,1.55.48,2.35.75.8.27,1.58.58,2.35.93.77.35,1.45.78,2.05,1.29.6.51,1.08,1.12,1.45,1.85.37.73.55,1.6.55,2.64,0,1.2-.22,2.31-.65,3.33s-1.07,1.9-1.9,2.65c-.83.75-1.87,1.33-3.11,1.75-1.24.42-2.66.62-4.26.62-.88,0-1.74-.08-2.56-.24-.82-.16-1.61-.38-2.35-.65-.74-.28-1.43-.6-2.08-.99-.64-.38-1.21-.8-1.71-1.25l1.25-2.05c.15-.25.34-.45.56-.59.22-.14.5-.21.84-.21.35,0,.7.11,1.04.34.34.22.74.47,1.2.74.46.27,1.01.51,1.66.74.65.23,1.46.34,2.42.34.8,0,1.49-.1,2.08-.29.58-.19,1.07-.45,1.45-.79.38-.33.67-.71.85-1.14s.28-.88.28-1.36c0-.65-.18-1.18-.55-1.6-.37-.42-.85-.78-1.46-1.08s-1.3-.57-2.08-.8-1.56-.48-2.36-.75-1.59-.58-2.36-.93c-.78-.35-1.47-.79-2.08-1.34s-1.1-1.2-1.46-1.98c-.37-.77-.55-1.72-.55-2.84,0-1.02.2-1.98.61-2.9.41-.92,1.01-1.72,1.8-2.42.79-.7,1.77-1.25,2.93-1.66,1.16-.41,2.5-.61,4.01-.61,1.72,0,3.28.28,4.68.83,1.4.55,2.57,1.3,3.52,2.25l-1.2,1.95Z"/>
  </g>
  <path d="m955.79,933.96c-.55,0-.99-.44-1-.99,0-.55.44-1,.99-1.01,3.3-.04,6.67-.13,10-.28.54-.03,1.02.4,1.04.96.02.55-.4,1.02-.96,1.04-3.35.15-6.74.24-10.06.28h-.01Zm-10.05-.04h-.02c-3.35-.06-6.74-.18-10.07-.35-.55-.03-.98-.5-.95-1.05.03-.55.52-.97,1.05-.95,3.31.17,6.68.29,10.01.35.55.01.99.47.98,1.02-.01.54-.46.98-1,.98Zm30.09-.83c-.52,0-.96-.4-1-.93-.04-.55.37-1.03.92-1.07,3.31-.25,6.66-.55,9.96-.9.55-.05,1.04.34,1.1.89.06.55-.34,1.04-.89,1.1-3.32.35-6.7.66-10.02.91-.03,0-.05,0-.08,0Zm-50.15-.18s-.05,0-.08,0c-3.33-.27-6.71-.6-10.03-.98-.55-.06-.94-.56-.88-1.11.06-.55.53-.96,1.11-.88,3.3.38,6.65.7,9.96.97.55.05.96.53.92,1.08-.04.52-.48.92-1,.92Zm70.11-1.94c-.49,0-.92-.36-.99-.86-.08-.55.31-1.05.85-1.13,3.28-.45,6.61-.97,9.89-1.52.55-.09,1.06.27,1.15.82.09.54-.27,1.06-.82,1.15-3.3.56-6.64,1.08-9.95,1.53-.05,0-.09,0-.14,0Zm-90.06-.33s-.1,0-.14-.01c-3.3-.48-6.65-1.02-9.94-1.6-.54-.1-.91-.62-.81-1.16.1-.54.61-.91,1.16-.81,3.27.58,6.6,1.12,9.88,1.59.55.08.93.59.85,1.13-.07.5-.5.86-.99.86Zm109.84-3.04c-.47,0-.88-.33-.98-.8-.11-.54.24-1.07.78-1.18,3.25-.66,6.53-1.38,9.77-2.14.54-.12,1.08.21,1.2.74.13.54-.21,1.08-.74,1.2-3.26.77-6.57,1.49-9.83,2.15-.07.01-.13.02-.2.02Zm-129.61-.46c-.07,0-.14,0-.21-.02-3.29-.69-6.59-1.43-9.82-2.22-.54-.13-.87-.67-.74-1.21s.67-.87,1.21-.74c3.21.78,6.5,1.52,9.76,2.2.54.11.89.64.77,1.18-.1.47-.51.79-.98.79Zm149.14-4.14c-.44,0-.84-.29-.96-.74-.14-.53.17-1.08.71-1.23,3.2-.86,6.43-1.78,9.62-2.75.53-.16,1.09.14,1.25.67.16.53-.14,1.09-.67,1.25-3.21.97-6.46,1.9-9.68,2.76-.09.02-.17.03-.26.03Zm-168.65-.58c-.09,0-.18-.01-.27-.04-3.22-.89-6.47-1.83-9.66-2.82-.53-.16-.82-.72-.66-1.25.16-.53.72-.83,1.25-.66,3.17.98,6.4,1.92,9.6,2.8.53.15.84.7.7,1.23-.12.44-.52.73-.96.73Zm187.86-5.23c-.42,0-.81-.26-.95-.68-.18-.52.11-1.09.63-1.27,3.14-1.05,6.31-2.18,9.43-3.33.52-.19,1.09.07,1.29.59s-.07,1.09-.59,1.29c-3.14,1.17-6.33,2.29-9.49,3.36-.11.04-.21.05-.32.05Zm-207.04-.69c-.11,0-.22-.02-.32-.05-3.16-1.08-6.34-2.23-9.47-3.41-.52-.2-.78-.77-.58-1.29.2-.52.77-.77,1.29-.58,3.1,1.17,6.27,2.31,9.41,3.39.52.18.8.75.62,1.27-.14.42-.53.68-.95.68Zm225.86-6.29c-.39,0-.77-.24-.93-.62-.21-.51.04-1.1.55-1.3,1.49-.6,2.97-1.22,4.45-1.85,1.6-.68,3.18-1.36,4.76-2.06.5-.23,1.09,0,1.32.51.22.5,0,1.1-.51,1.32-1.59.7-3.19,1.4-4.79,2.08-1.49.63-2.98,1.25-4.47,1.86-.12.05-.25.07-.38.07Zm-244.62-.8c-.13,0-.26-.02-.38-.08-3.1-1.28-6.21-2.62-9.24-3.99-.5-.23-.73-.82-.5-1.32.23-.5.82-.72,1.32-.5,3.01,1.36,6.1,2.69,9.18,3.96.51.21.75.8.54,1.31-.16.39-.53.62-.92.62Zm262.98-7.32c-.37,0-.73-.21-.9-.57-.24-.5-.03-1.09.47-1.33,2.98-1.43,6-2.93,8.95-4.46.49-.26,1.09-.06,1.35.43.25.49.06,1.09-.43,1.35-2.97,1.54-6,3.05-9,4.49-.14.07-.29.1-.43.1Zm-281.27-.92c-.15,0-.3-.03-.44-.1-2.99-1.46-6-2.99-8.97-4.55-.49-.26-.68-.86-.42-1.35.26-.49.86-.68,1.35-.42,2.95,1.55,5.95,3.07,8.92,4.52.5.24.7.84.46,1.34-.17.36-.53.56-.9.56Zm299.08-8.31c-.35,0-.69-.18-.87-.51-.27-.48-.1-1.09.39-1.36,2.89-1.61,5.8-3.3,8.66-5.01.47-.28,1.09-.13,1.37.34.28.47.13,1.09-.34,1.37-2.87,1.72-5.8,3.42-8.71,5.04-.15.09-.32.13-.49.13Zm-316.82-1.04c-.17,0-.34-.04-.49-.13-2.91-1.65-5.83-3.37-8.67-5.1-.47-.29-.62-.9-.33-1.38.29-.47.9-.62,1.38-.33,2.82,1.72,5.72,3.42,8.62,5.06.48.27.65.88.38,1.36-.18.32-.52.51-.87.51Zm334.02-9.27c-.33,0-.65-.16-.84-.46-.3-.46-.16-1.08.3-1.38,2.79-1.79,5.59-3.65,8.33-5.54.46-.31,1.08-.2,1.39.26s.2,1.08-.26,1.39c-2.76,1.89-5.58,3.77-8.38,5.57-.17.11-.36.16-.54.16Zm-351.15-1.15c-.19,0-.38-.05-.54-.16-2.8-1.82-5.6-3.71-8.34-5.62-.45-.32-.56-.94-.25-1.39s.94-.56,1.39-.25c2.72,1.9,5.51,3.78,8.28,5.59.46.3.59.92.29,1.38-.19.29-.51.45-.84.45Zm367.68-10.22c-.31,0-.61-.14-.81-.41-.33-.45-.23-1.07.21-1.4,2.66-1.95,5.33-3.98,7.96-6.05.44-.34,1.06-.26,1.4.17s.26,1.06-.17,1.4c-2.65,2.07-5.34,4.12-8.02,6.08-.18.13-.39.19-.59.19Zm-384.12-1.25c-.21,0-.42-.06-.6-.2-2.69-2-5.37-4.06-7.97-6.13-.43-.34-.5-.97-.16-1.41.34-.43.97-.5,1.41-.16,2.58,2.05,5.25,4.1,7.92,6.09.44.33.53.96.2,1.4-.2.26-.5.4-.8.4Zm399.88-11.11c-.29,0-.57-.12-.77-.36-.35-.42-.3-1.05.13-1.41,2.54-2.13,5.09-4.32,7.55-6.52.41-.37,1.04-.33,1.41.08.37.41.33,1.04-.08,1.41-2.48,2.21-5.04,4.42-7.6,6.56-.19.16-.42.23-.64.23Zm-415.57-1.34c-.23,0-.46-.08-.65-.24-2.55-2.16-5.09-4.38-7.57-6.61-.41-.37-.44-1-.07-1.41.37-.41,1-.44,1.41-.07,2.46,2.22,4.99,4.43,7.52,6.57.42.36.47.99.12,1.41-.2.23-.48.35-.76.35Zm430.51-11.96c-.26,0-.53-.1-.73-.31-.38-.4-.36-1.03.04-1.41,2.41-2.28,4.81-4.63,7.13-6.98.39-.39,1.02-.4,1.41,0,.39.39.39,1.02,0,1.41-2.34,2.36-4.76,4.73-7.18,7.02-.19.18-.44.27-.69.27Zm-445.39-1.44c-.25,0-.5-.09-.69-.28-2.4-2.3-4.8-4.68-7.14-7.06-.39-.39-.38-1.03.01-1.42.4-.39,1.03-.38,1.41.01,2.32,2.37,4.71,4.73,7.09,7.02.4.38.41,1.02.03,1.41-.2.21-.46.31-.72.31Zm459.48-12.78c-.24,0-.49-.09-.68-.27-.4-.38-.43-1.01-.05-1.41,2.25-2.42,4.5-4.91,6.69-7.41.36-.42,1-.46,1.41-.09.42.36.46,1,.09,1.41-2.2,2.52-4.46,5.03-6.73,7.46-.2.21-.46.32-.73.32Zm-473.49-1.52c-.27,0-.54-.11-.74-.32-2.26-2.45-4.5-4.97-6.68-7.49-.36-.42-.31-1.05.1-1.41.42-.36,1.05-.32,1.41.1,2.16,2.5,4.39,5.01,6.64,7.45.37.41.35,1.04-.06,1.41-.19.18-.43.26-.68.26Zm486.67-13.56c-.22,0-.45-.07-.63-.23-.43-.35-.49-.98-.14-1.41,2.1-2.56,4.19-5.19,6.22-7.82.33-.44.96-.52,1.4-.18.44.34.52.96.18,1.4-2.04,2.65-4.14,5.29-6.25,7.87-.2.24-.48.37-.77.37Zm-499.75-1.59c-.29,0-.58-.13-.78-.37-2.1-2.59-4.19-5.25-6.21-7.92-.33-.44-.25-1.07.19-1.4.44-.33,1.07-.25,1.4.19,2.01,2.65,4.09,5.29,6.18,7.87.35.43.28,1.06-.15,1.41-.19.15-.41.22-.63.22Zm511.97-14.29c-.2,0-.41-.06-.58-.19-.45-.32-.55-.95-.23-1.4,1.94-2.69,3.86-5.44,5.72-8.19.31-.46.93-.58,1.39-.27.46.31.58.93.27,1.39-1.87,2.77-3.8,5.54-5.75,8.24-.2.27-.5.42-.81.42Zm-524.11-1.68c-.31,0-.62-.15-.82-.42-1.95-2.73-3.86-5.52-5.71-8.29-.31-.46-.18-1.08.28-1.39.46-.31,1.08-.18,1.39.28,1.83,2.75,3.74,5.52,5.67,8.24.32.45.22,1.07-.23,1.39-.18.12-.38.19-.58.19Zm535.33-14.93c-.18,0-.37-.05-.53-.15-.47-.29-.61-.91-.31-1.38,1.77-2.8,3.52-5.67,5.2-8.53.28-.48.89-.64,1.37-.35.48.28.63.89.36,1.37-1.7,2.88-3.46,5.77-5.23,8.59-.19.3-.51.47-.85.47Zm-546.44-1.77c-.33,0-.66-.17-.85-.47-1.76-2.83-3.5-5.74-5.18-8.63-.28-.48-.11-1.09.36-1.37.48-.28,1.09-.12,1.37.36,1.66,2.87,3.39,5.76,5.15,8.58.29.47.15,1.08-.32,1.38-.16.1-.35.15-.53.15Zm556.61-15.51c-.16,0-.33-.04-.48-.12-.48-.27-.66-.87-.4-1.36,1.58-2.89,3.15-5.86,4.67-8.84.25-.49.85-.69,1.34-.44.49.25.69.85.44,1.34-1.52,3-3.1,5.99-4.69,8.9-.18.33-.52.52-.88.52Zm-566.66-1.85c-.36,0-.7-.19-.88-.53-1.58-2.94-3.14-5.95-4.63-8.93-.25-.49-.05-1.09.45-1.34.49-.25,1.09-.05,1.34.45,1.48,2.97,3.03,5.95,4.6,8.88.26.49.08,1.09-.41,1.35-.15.08-.31.12-.47.12Zm575.74-16.03c-.14,0-.29-.03-.42-.09-.5-.24-.71-.83-.48-1.33,1.42-3.01,2.8-6.08,4.11-9.12.22-.5.8-.74,1.32-.52.51.22.74.81.52,1.32-1.32,3.05-2.71,6.14-4.14,9.17-.17.36-.53.58-.91.58Zm-584.7-1.92c-.38,0-.74-.21-.91-.58-1.4-3.03-2.77-6.13-4.08-9.2-.22-.51.02-1.09.53-1.31.51-.21,1.1.02,1.31.53,1.3,3.06,2.66,6.13,4.05,9.14.23.5.01,1.1-.49,1.33-.14.06-.28.09-.42.09Zm592.67-16.49c-.12,0-.25-.02-.37-.07-.51-.2-.76-.79-.56-1.3,1.22-3.07,2.41-6.22,3.54-9.35.19-.52.76-.79,1.28-.6.52.19.79.76.6,1.28-1.14,3.15-2.34,6.32-3.56,9.41-.16.39-.53.63-.93.63Zm-600.51-1.98c-.4,0-.78-.24-.93-.64-1.21-3.11-2.39-6.29-3.51-9.44-.18-.52.09-1.09.61-1.28.52-.19,1.09.09,1.28.61,1.11,3.13,2.28,6.28,3.49,9.38.2.51-.05,1.09-.57,1.29-.12.05-.24.07-.36.07Zm607.32-16.9c-.1,0-.21-.02-.31-.05-.52-.17-.81-.74-.64-1.26,1.02-3.14,2.02-6.35,2.96-9.56.16-.53.71-.83,1.24-.68.53.16.83.71.68,1.24-.94,3.22-1.94,6.46-2.98,9.62-.14.42-.53.69-.95.69Zm-614.02-2.02c-.42,0-.82-.27-.95-.7-1.02-3.19-2-6.44-2.92-9.63-.15-.53.16-1.08.69-1.24.53-.14,1.08.16,1.24.69.91,3.18,1.88,6.4,2.9,9.57.17.53-.12,1.09-.65,1.26-.1.03-.2.05-.3.05Zm619.66-17.24c-.08,0-.17,0-.25-.03-.54-.14-.86-.68-.72-1.22.83-3.21,1.63-6.48,2.36-9.72.12-.54.66-.88,1.2-.75.54.12.88.66.75,1.2-.74,3.26-1.54,6.56-2.38,9.78-.12.45-.52.75-.97.75Zm-625.18-2.05c-.45,0-.85-.3-.97-.75-.82-3.25-1.6-6.55-2.31-9.8-.12-.54.22-1.07.76-1.19.53-.12,1.07.22,1.19.76.71,3.23,1.48,6.5,2.3,9.74.13.54-.19,1.08-.72,1.21-.08.02-.17.03-.25.03Zm629.61-17.52c-.06,0-.13,0-.19-.02-.54-.1-.9-.63-.79-1.17.63-3.26,1.22-6.57,1.75-9.85.09-.54.59-.92,1.15-.83.54.09.92.6.83,1.15-.54,3.3-1.13,6.64-1.76,9.91-.09.48-.51.81-.98.81Zm-633.91-2.08c-.47,0-.89-.33-.98-.82-.61-3.29-1.18-6.62-1.7-9.92-.08-.55.29-1.06.83-1.14.54-.08,1.06.29,1.14.83.51,3.28,1.07,6.59,1.69,9.86.1.54-.26,1.07-.8,1.17-.06.01-.12.02-.18.02Zm637.12-17.74s-.09,0-.13,0c-.55-.07-.93-.57-.86-1.12.43-3.29.81-6.64,1.14-9.95.05-.55.53-.94,1.09-.9.55.05.95.54.9,1.09-.33,3.33-.71,6.7-1.14,10.01-.07.5-.5.87-.99.87Zm-640.19-2.09c-.5,0-.93-.37-.99-.88-.41-3.31-.77-6.68-1.07-10.01-.05-.55.36-1.04.91-1.09.57-.05,1.04.36,1.09.91.3,3.31.66,6.66,1.06,9.95.07.55-.32,1.05-.87,1.11-.04,0-.08,0-.12,0Zm642.16-17.9s-.04,0-.07,0c-.55-.04-.97-.51-.93-1.06.22-3.32.4-6.69.51-10,.02-.55.51-.99,1.03-.96.55.02.98.48.96,1.03-.12,3.34-.29,6.72-.52,10.06-.04.53-.48.93-1,.93Zm-643.98-2.09c-.53,0-.97-.41-1-.94-.2-3.33-.35-6.71-.44-10.06-.02-.55.42-1.01.97-1.03.54.02,1.01.42,1.03.97.09,3.32.24,6.69.44,9.99.03.55-.39,1.03-.94,1.06-.02,0-.04,0-.06,0Zm644.15-38.05c-.53,0-.97-.41-1-.94-.19-3.32-.44-6.68-.74-9.98-.05-.55.36-1.04.91-1.09.55-.05,1.04.36,1.09.91.3,3.32.55,6.7.74,10.04.03.55-.39,1.02-.94,1.06-.02,0-.04,0-.06,0Zm-644.02-2.09s-.04,0-.07,0c-.55-.04-.97-.51-.93-1.06.22-3.33.49-6.71.82-10.04.05-.55.55-.95,1.09-.9.55.05.95.54.9,1.09-.32,3.31-.6,6.67-.81,9.98-.04.53-.47.93-1,.93Zm642.22-17.9c-.5,0-.93-.37-.99-.88-.4-3.29-.86-6.63-1.36-9.91-.08-.55.29-1.06.84-1.14.54-.08,1.06.29,1.14.84.51,3.3.97,6.66,1.37,9.97.07.55-.32,1.05-.87,1.11-.04,0-.08,0-.12,0Zm-640.28-2.09s-.08,0-.13,0c-.55-.07-.93-.57-.86-1.12.43-3.32.91-6.67,1.44-9.97.09-.55.6-.92,1.15-.83.54.09.92.6.83,1.15-.53,3.28-1.01,6.61-1.43,9.91-.07.5-.5.87-.99.87Zm637.23-17.75c-.47,0-.89-.34-.98-.82-.6-3.25-1.27-6.55-1.98-9.8-.12-.54.22-1.07.76-1.19.54-.12,1.07.22,1.19.76.72,3.28,1.39,6.6,2,9.87.1.54-.26,1.07-.8,1.17-.06.01-.12.02-.18.02Zm-634.04-2.08c-.06,0-.13,0-.19-.02-.54-.1-.9-.63-.79-1.17.63-3.27,1.32-6.59,2.06-9.86.12-.54.65-.88,1.2-.76.54.12.88.66.76,1.2-.73,3.25-1.42,6.54-2.05,9.8-.09.48-.51.81-.98.81Zm629.76-17.53c-.45,0-.85-.3-.97-.76-.8-3.2-1.68-6.45-2.59-9.66-.15-.53.16-1.08.69-1.24.53-.15,1.08.16,1.24.69.92,3.23,1.8,6.5,2.61,9.72.13.54-.19,1.08-.73,1.21-.08.02-.16.03-.24.03Zm-625.35-2.06c-.08,0-.17,0-.25-.03-.53-.14-.86-.68-.72-1.22.83-3.23,1.73-6.5,2.67-9.71.15-.53.71-.84,1.24-.68.53.15.83.71.68,1.24-.93,3.19-1.82,6.44-2.65,9.65-.12.45-.52.75-.97.75Zm619.86-17.25c-.42,0-.82-.27-.95-.7-1.01-3.17-2.08-6.36-3.18-9.48-.18-.52.09-1.09.61-1.28.52-.18,1.09.09,1.28.61,1.11,3.14,2.19,6.35,3.2,9.54.17.53-.12,1.09-.65,1.26-.1.03-.2.05-.3.05Zm-614.25-2.02c-.1,0-.21-.02-.31-.05-.52-.17-.81-.74-.64-1.26,1.04-3.19,2.13-6.4,3.26-9.52.19-.52.75-.79,1.28-.6.52.19.79.76.6,1.28-1.12,3.11-2.21,6.29-3.24,9.46-.14.42-.53.69-.95.69Zm607.57-16.9c-.4,0-.78-.24-.93-.64-1.19-3.08-2.46-6.2-3.76-9.27l-.28-.67c-.22-.51.02-1.1.53-1.31.51-.22,1.1.02,1.31.53l.28.67c1.31,3.09,2.58,6.23,3.79,9.33.2.51-.06,1.09-.57,1.29-.12.05-.24.07-.36.07Zm-600.78-1.98c-.12,0-.25-.02-.37-.07-.51-.2-.77-.78-.56-1.3,1.23-3.11,2.52-6.24,3.84-9.3.22-.51.8-.74,1.31-.52.51.22.74.81.52,1.31-1.31,3.04-2.6,6.15-3.82,9.24-.16.39-.53.63-.93.63Zm592.65-17.16c-.38,0-.74-.21-.91-.58-1.39-3-2.85-6.04-4.34-9.01-.25-.49-.05-1.09.45-1.34.49-.24,1.09-.05,1.34.45,1.5,2.99,2.97,6.04,4.36,9.07.23.5.01,1.1-.49,1.33-.14.06-.28.09-.42.09Zm-584.71-1.26c-.14,0-.29-.03-.42-.09-.5-.23-.72-.83-.48-1.33,1.42-3.02,2.9-6.07,4.41-9.04.25-.49.85-.69,1.34-.44.49.25.69.85.44,1.34-1.5,2.96-2.97,5.98-4.38,8.99-.17.36-.53.58-.91.58Zm575.73-16.68c-.36,0-.7-.19-.88-.52-1.58-2.92-3.22-5.86-4.89-8.73-.28-.48-.11-1.09.36-1.37.48-.28,1.09-.11,1.37.36,1.67,2.88,3.33,5.84,4.92,8.78.26.49.08,1.09-.4,1.36-.15.08-.31.12-.47.12Zm-566.67-1.21c-.16,0-.33-.04-.48-.12-.48-.26-.66-.87-.4-1.36,1.59-2.92,3.26-5.86,4.96-8.75.28-.48.89-.64,1.37-.36s.64.89.36,1.37c-1.68,2.87-3.34,5.8-4.93,8.7-.18.33-.52.52-.88.52Zm556.6-16.13c-.33,0-.66-.17-.85-.47-1.76-2.82-3.58-5.65-5.42-8.4-.31-.46-.18-1.08.28-1.39.46-.31,1.08-.18,1.39.28,1.85,2.77,3.69,5.62,5.45,8.46.29.47.15,1.08-.32,1.38-.16.1-.35.15-.53.15Zm-546.45-1.16c-.18,0-.37-.05-.53-.15-.47-.29-.61-.91-.31-1.38,1.78-2.83,3.63-5.66,5.49-8.42.31-.46.93-.58,1.39-.27.46.31.58.93.27,1.39-1.85,2.75-3.68,5.56-5.45,8.37-.19.3-.52.47-.85.47Zm535.31-15.53c-.31,0-.62-.15-.82-.42-1.93-2.7-3.92-5.41-5.93-8.05-.33-.44-.25-1.07.19-1.4s1.07-.25,1.4.19c2.02,2.66,4.03,5.38,5.97,8.1.32.45.22,1.07-.23,1.4-.18.12-.38.19-.58.19Zm-524.12-1.09c-.2,0-.41-.06-.58-.19-.45-.32-.55-.95-.23-1.4,1.95-2.71,3.97-5.42,6-8.07.34-.44.96-.52,1.4-.18.44.34.52.96.18,1.4-2.02,2.63-4.02,5.32-5.96,8.02-.2.27-.5.42-.81.42Zm511.96-14.87c-.29,0-.58-.13-.78-.37-2.09-2.57-4.25-5.14-6.41-7.64-.36-.42-.32-1.05.1-1.41.42-.36,1.05-.32,1.41.1,2.18,2.51,4.35,5.1,6.45,7.69.35.43.28,1.06-.15,1.41-.19.15-.41.22-.63.22Zm-499.76-1.03c-.22,0-.45-.07-.63-.23-.43-.35-.49-.98-.14-1.41,2.11-2.58,4.3-5.16,6.49-7.67.36-.42,1-.46,1.41-.1.42.36.46,1,.1,1.41-2.18,2.5-4.34,5.06-6.45,7.63-.2.24-.48.37-.77.37Zm486.66-14.1c-.27,0-.54-.11-.74-.32-2.26-2.45-4.57-4.88-6.88-7.23-.39-.39-.38-1.03.01-1.41.39-.39,1.03-.38,1.41.01,2.32,2.36,4.65,4.81,6.92,7.27.37.41.35,1.04-.06,1.41-.19.18-.43.26-.68.26Zm-473.49-.99c-.24,0-.49-.09-.68-.27-.4-.38-.43-1.01-.05-1.41,2.25-2.43,4.59-4.87,6.95-7.25.39-.39,1.02-.4,1.42,0,.39.39.4,1.02,0,1.42-2.34,2.37-4.67,4.8-6.91,7.21-.2.21-.46.32-.73.32Zm459.47-13.29c-.25,0-.5-.09-.69-.28-2.4-2.3-4.86-4.58-7.32-6.79-.41-.37-.45-1-.08-1.41.37-.41,1-.44,1.41-.08,2.47,2.22,4.95,4.52,7.36,6.83.4.38.41,1.01.03,1.41-.2.21-.46.31-.72.31Zm-445.4-.94c-.26,0-.53-.1-.72-.31-.38-.4-.36-1.03.04-1.41,2.42-2.3,4.91-4.59,7.38-6.8.41-.37,1.04-.33,1.41.08s.33,1.04-.08,1.41c-2.46,2.2-4.93,4.47-7.34,6.76-.19.18-.44.28-.69.28Zm430.5-12.45c-.23,0-.46-.08-.65-.24-2.53-2.14-5.14-4.27-7.73-6.32-.43-.34-.51-.97-.16-1.41.34-.43.97-.51,1.41-.16,2.61,2.07,5.23,4.21,7.78,6.36.42.36.47.99.12,1.41-.2.23-.48.35-.76.35Zm-415.57-.88c-.29,0-.57-.12-.77-.36-.35-.42-.3-1.05.12-1.41,2.56-2.15,5.19-4.28,7.79-6.32.44-.34,1.06-.26,1.4.17.34.43.27,1.06-.17,1.4-2.59,2.04-5.2,4.15-7.74,6.28-.19.16-.42.23-.64.23Zm399.86-11.56c-.21,0-.42-.06-.6-.2-2.66-1.98-5.39-3.94-8.11-5.83-.45-.32-.57-.94-.25-1.39.31-.45.94-.57,1.39-.25,2.74,1.91,5.49,3.88,8.16,5.87.44.33.54.96.21,1.4-.2.26-.5.4-.8.4Zm-384.11-.82c-.31,0-.61-.14-.81-.41-.33-.44-.23-1.07.21-1.4,2.68-1.97,5.43-3.94,8.2-5.84.46-.31,1.08-.2,1.39.26.31.46.2,1.08-.26,1.39-2.74,1.89-5.48,3.84-8.14,5.8-.18.13-.39.2-.59.2Zm367.66-10.63c-.19,0-.38-.05-.54-.16-2.78-1.81-5.63-3.6-8.46-5.32-.47-.29-.62-.9-.34-1.37.29-.47.9-.62,1.37-.33,2.85,1.73,5.71,3.53,8.51,5.35.46.3.59.92.29,1.38-.19.29-.51.46-.84.46Zm-351.15-.76c-.33,0-.65-.16-.84-.46-.3-.46-.17-1.08.3-1.38,2.8-1.81,5.68-3.59,8.54-5.32.47-.29,1.09-.13,1.37.34.28.47.13,1.09-.34,1.37-2.85,1.71-5.7,3.49-8.49,5.28-.17.11-.35.16-.54.16Zm334.01-9.65c-.17,0-.34-.04-.49-.13-2.9-1.64-5.85-3.25-8.78-4.79-.49-.26-.68-.86-.42-1.35.26-.49.86-.67,1.35-.42,2.95,1.55,5.92,3.17,8.83,4.82.48.27.65.88.38,1.36-.18.33-.52.51-.87.51Zm-316.82-.68c-.35,0-.69-.18-.87-.51-.27-.48-.1-1.09.38-1.36,2.91-1.62,5.89-3.23,8.86-4.78.49-.25,1.09-.06,1.35.43.25.49.06,1.09-.43,1.35-2.95,1.53-5.92,3.13-8.8,4.75-.15.09-.32.13-.49.13Zm299.07-8.64c-.15,0-.3-.03-.44-.1-2.98-1.45-6.02-2.87-9.06-4.24-.5-.23-.73-.82-.5-1.32.23-.5.82-.73,1.32-.5,3.05,1.37,6.12,2.8,9.11,4.26.5.24.7.84.46,1.34-.17.36-.53.56-.9.56Zm-281.26-.6c-.37,0-.73-.21-.9-.57-.24-.5-.03-1.1.47-1.33,3.02-1.45,6.09-2.87,9.13-4.22.51-.23,1.1,0,1.32.51.22.5,0,1.1-.51,1.32-3.02,1.34-6.08,2.75-9.08,4.2-.14.07-.29.1-.43.1Zm262.97-7.61c-.13,0-.26-.02-.38-.08-3.06-1.26-6.19-2.5-9.3-3.67-.52-.19-.78-.77-.58-1.29.19-.52.77-.78,1.29-.58,3.13,1.18,6.28,2.42,9.36,3.69.51.21.75.79.54,1.31-.16.39-.53.62-.92.62Zm-244.62-.53c-.39,0-.77-.23-.93-.62-.21-.51.04-1.1.55-1.3,3.09-1.26,6.25-2.49,9.38-3.66.52-.19,1.09.07,1.29.59.19.52-.07,1.09-.59,1.29-3.11,1.16-6.25,2.38-9.32,3.63-.12.05-.25.07-.38.07Zm225.85-6.54c-.11,0-.22-.02-.32-.05-3.14-1.07-6.34-2.11-9.52-3.09-.53-.16-.82-.72-.66-1.25.16-.53.72-.82,1.25-.66,3.19.98,6.41,2.03,9.57,3.11.52.18.8.75.62,1.27-.14.42-.53.68-.95.68Zm-207.04-.46c-.42,0-.81-.26-.95-.68-.18-.52.1-1.09.63-1.27,3.15-1.07,6.38-2.1,9.59-3.07.53-.16,1.09.14,1.25.67.16.53-.14,1.09-.67,1.25-3.19.97-6.39,2-9.53,3.05-.11.04-.21.05-.32.05Zm187.86-5.44c-.09,0-.18-.01-.27-.04-3.21-.88-6.47-1.72-9.69-2.49-.54-.13-.87-.67-.74-1.21.13-.54.67-.87,1.21-.74,3.24.78,6.52,1.62,9.75,2.51.53.15.85.7.7,1.23-.12.44-.52.74-.96.74Zm-168.66-.39c-.44,0-.84-.29-.96-.74-.14-.53.17-1.08.71-1.23,3.24-.87,6.52-1.71,9.76-2.47.54-.12,1.08.21,1.2.74.13.54-.21,1.08-.74,1.2-3.21.76-6.48,1.59-9.7,2.46-.09.02-.17.03-.26.03Zm149.14-4.31c-.07,0-.14,0-.21-.02-3.27-.68-6.58-1.32-9.83-1.89-.54-.1-.91-.61-.81-1.16.1-.54.61-.9,1.16-.81,3.27.58,6.6,1.21,9.89,1.9.54.11.89.64.78,1.18-.1.47-.51.8-.98.8Zm-129.62-.31c-.47,0-.88-.33-.98-.8-.11-.54.24-1.07.78-1.18,3.29-.67,6.62-1.3,9.89-1.86.56-.09,1.06.27,1.15.82.09.54-.27,1.06-.82,1.15-3.26.56-6.56,1.18-9.83,1.84-.07.01-.13.02-.2.02Zm109.84-3.17s-.1,0-.14,0c-3.27-.47-6.61-.9-9.93-1.27-.55-.06-.94-.56-.88-1.11.06-.55.56-.94,1.11-.88,3.34.38,6.7.81,9.99,1.28.55.08.93.59.85,1.13-.07.5-.5.86-.99.86Zm-90.06-.23c-.49,0-.92-.36-.99-.86-.08-.55.3-1.05.85-1.13,3.32-.46,6.68-.88,9.99-1.23.55-.05,1.04.34,1.1.89.06.55-.34,1.04-.89,1.1-3.29.35-6.63.77-9.93,1.23-.05,0-.09,0-.14,0Zm70.11-2.02s-.05,0-.08,0c-3.31-.27-6.67-.49-9.99-.65-.55-.03-.98-.5-.95-1.05.03-.55.48-.97,1.05-.95,3.34.17,6.73.39,10.05.66.55.04.96.53.92,1.08-.04.52-.48.92-1,.92Zm-50.16-.13c-.52,0-.96-.4-1-.92-.04-.55.37-1.03.92-1.07,3.34-.25,6.72-.46,10.05-.61.56-.05,1.02.4,1.04.96.02.55-.4,1.02-.95,1.04-3.31.15-6.67.35-9.99.6-.03,0-.05,0-.08,0Zm30.09-.87h-.02c-3.33-.06-6.67-.07-10.01-.03h-.01c-.55,0-.99-.44-1-.99,0-.55.43-1.01.99-1.01,3.36-.04,6.72-.04,10.08.03.55,0,.99.47.98,1.02,0,.55-.46.98-1,.98Z"/>
  <path class="uuid-88e368a1-8eef-4fde-b73e-fac9a92f1932" d="m1586.12,885.64c-.21,0-.43,0-.65-.03l-95.71-9.51c-1.73-.17-3.29-1.01-4.39-2.35-1.1-1.35-1.61-3.04-1.44-4.77l2.74-27.58c-4.36,2.41-9.4,3.48-14.44,2.98-13.59-1.35-23.55-13.51-22.2-27.1,1.35-13.59,13.51-23.56,27.1-22.2,5.04.5,9.77,2.54,13.58,5.77l2.74-27.58c.17-1.73,1.01-3.29,2.35-4.39,1.35-1.1,3.04-1.62,4.77-1.44l31.86,3.17c1,.1,1.84.78,2.14,1.74.3.96,0,2-.76,2.65-3.9,3.33-6.32,7.97-6.83,13.07-.52,5.25,1.03,10.4,4.38,14.48,3.35,4.09,8.08,6.62,13.34,7.15,10.87,1.07,20.55-6.87,21.63-17.72.51-5.1-.96-10.12-4.12-14.16-.62-.79-.71-1.87-.22-2.75.48-.88,1.45-1.4,2.44-1.28l31.86,3.17c3.57.35,6.19,3.55,5.83,7.12l-9.51,95.71c-.33,3.35-3.17,5.87-6.47,5.87Zm-96.42-51.98c.38,0,.76.09,1.12.27.93.46,1.47,1.45,1.37,2.48l-3.29,33.06h0c-.08.83.53,1.57,1.35,1.65l95.71,9.51c.83.07,1.57-.53,1.65-1.35l9.51-95.71c.08-.83-.53-1.57-1.35-1.65l-26.82-2.67c1.97,4.07,2.79,8.62,2.33,13.21-1.35,13.59-13.52,23.56-27.1,22.2-6.58-.65-12.52-3.83-16.71-8.95-4.19-5.12-6.14-11.56-5.49-18.15.46-4.59,2.15-8.88,4.89-12.49l-26.81-2.67c-.4-.03-.79.08-1.11.33-.31.26-.51.62-.55,1.02l-3.29,33.06c-.1,1.03-.83,1.89-1.83,2.17-1,.27-2.06-.1-2.67-.93-3.32-4.53-8.42-7.44-14-8-10.85-1.07-20.55,6.87-21.63,17.72-1.08,10.85,6.87,20.55,17.72,21.63,5.57.55,11.15-1.3,15.3-5.08.47-.43,1.08-.65,1.69-.65Z"/>
  <path class="uuid-88e368a1-8eef-4fde-b73e-fac9a92f1932" d="m1505,688.34c-8.96,0-17.63-4.87-22.03-13.36-2.33-4.5-3.21-9.57-2.58-14.52l-24.6,12.76c-1.54.8-3.31.96-4.96.43-1.66-.53-3.01-1.67-3.81-3.21l-14.74-28.42c-.46-.89-.35-1.97.29-2.74.64-.77,1.68-1.09,2.63-.81,4.92,1.45,10.13.94,14.68-1.41,4.69-2.43,8.15-6.54,9.75-11.58,1.59-5.04,1.13-10.39-1.3-15.08-5.02-9.68-16.98-13.47-26.66-8.45-4.54,2.36-7.96,6.33-9.61,11.18-.32.95-1.18,1.61-2.18,1.69-1,.07-1.95-.45-2.41-1.34l-14.74-28.42c-.8-1.54-.95-3.31-.43-4.96.53-1.66,1.67-3.01,3.21-3.81l24.64-12.78c-4.45-2.34-8.13-6-10.48-10.53-3.05-5.88-3.63-12.59-1.63-18.91,2-6.31,6.34-11.47,12.22-14.52,5.88-3.05,12.59-3.63,18.91-1.62,6.31,2,11.47,6.34,14.52,12.22,2.35,4.53,3.22,9.65,2.57,14.63l24.64-12.78h0c1.54-.8,3.31-.95,4.96-.43,1.66.53,3.01,1.67,3.81,3.21l44.29,85.38c1.65,3.18.41,7.12-2.78,8.78l-24.6,12.76c4.41,2.34,8.05,5.98,10.38,10.47,3.05,5.87,3.62,12.58,1.62,18.89-2,6.31-6.33,11.46-12.21,14.51-3.64,1.88-7.53,2.78-11.37,2.78Zm-20.87-35.14c.6,0,1.19.22,1.66.63.77.69,1.04,1.78.68,2.75-1.98,5.25-1.64,11.12.94,16.09,5.02,9.68,16.98,13.47,26.66,8.45,4.69-2.43,8.15-6.54,9.75-11.58,1.59-5.04,1.13-10.39-1.3-15.08-2.58-4.98-7.18-8.63-12.61-10.04-1-.26-1.74-1.11-1.86-2.14-.12-1.03.41-2.02,1.33-2.5l29.49-15.3c.74-.38,1.03-1.3.65-2.03l-44.29-85.38c-.19-.36-.5-.62-.88-.75-.38-.12-.79-.08-1.15.1l-29.56,15.33c-.92.48-2.04.34-2.82-.35s-1.04-1.79-.67-2.76c2.03-5.29,1.7-11.19-.9-16.21-2.43-4.69-6.55-8.16-11.59-9.75-5.04-1.6-10.4-1.14-15.09,1.3-9.69,5.02-13.48,17-8.46,26.68,2.6,5.01,7.24,8.69,12.73,10.07,1.01.25,1.75,1.1,1.87,2.14s-.41,2.03-1.33,2.51l-29.56,15.33c-.36.19-.62.5-.74.88-.12.38-.09.79.1,1.15l12.41,23.92c2.33-3.87,5.7-7.04,9.79-9.17,5.87-3.05,12.58-3.62,18.89-1.62,6.31,2,11.46,6.33,14.51,12.21,3.05,5.87,3.62,12.58,1.62,18.89-2,6.31-6.33,11.46-12.21,14.51-4.09,2.12-8.62,3.04-13.13,2.72l12.41,23.92c.38.74,1.3,1.03,2.04.65l29.49-15.3c.36-.19.76-.28,1.15-.28Z"/>
  <path class="uuid-88e368a1-8eef-4fde-b73e-fac9a92f1932" d="m1627.54,761.23c-1.1,0-2.21-.07-3.32-.22-6.56-.87-12.39-4.25-16.41-9.5-4.02-5.25-5.75-11.76-4.88-18.32.67-5.02,2.86-9.68,6.21-13.38l-27.47-3.66c-1.72-.23-3.25-1.12-4.31-2.5-1.06-1.38-1.51-3.09-1.28-4.82l4.22-31.74c.13-.99.84-1.81,1.81-2.08.96-.27,2,.07,2.62.85,3.2,4.01,7.76,6.58,12.83,7.26,10.79,1.43,20.77-6.18,22.21-16.99,1.44-10.81-6.18-20.77-16.99-22.21-5.08-.67-10.15.62-14.29,3.65-.81.59-1.89.64-2.75.13-.86-.51-1.33-1.49-1.2-2.48l4.22-31.74c.23-1.72,1.12-3.25,2.5-4.31,1.38-1.06,3.09-1.51,4.81-1.28l95.34,12.68c3.56.47,6.07,3.75,5.6,7.31l-3.64,27.37c4.44-2.25,9.5-3.15,14.51-2.48h0c13.55,1.8,23.11,14.3,21.31,27.85-1.8,13.55-14.31,23.11-27.85,21.31-5.01-.67-9.66-2.85-13.36-6.19l-3.66,27.49c-.47,3.56-3.75,6.06-7.31,5.59l-27.47-3.66c2.27,4.44,3.17,9.51,2.5,14.54-.87,6.56-4.25,12.39-9.5,16.41-4.37,3.34-9.6,5.1-15,5.1Zm-42.95-78.44l-3.55,26.71c-.05.4.05.8.3,1.12s.6.53,1,.58l32.93,4.38c1.03.14,1.86.89,2.1,1.9.24,1.01-.17,2.06-1.02,2.64-4.64,3.17-7.72,8.17-8.46,13.72-.7,5.24.69,10.43,3.9,14.62s7.86,6.89,13.1,7.58c5.23.69,10.43-.69,14.62-3.9s6.89-7.86,7.58-13.1c.74-5.56-.93-11.19-4.58-15.46-.67-.79-.79-1.91-.3-2.82.5-.91,1.49-1.42,2.53-1.28l32.93,4.38c.81.12,1.59-.47,1.7-1.3l4.38-32.93c.14-1.03.89-1.86,1.9-2.1,1.01-.24,2.06.16,2.64,1.02,3.17,4.61,8.17,7.68,13.71,8.42,10.81,1.44,20.79-6.19,22.23-17.01,1.44-10.82-6.19-20.79-17.01-22.23h0c-5.54-.74-11.17.92-15.43,4.54-.79.67-1.91.79-2.82.29-.91-.5-1.42-1.5-1.28-2.52l4.37-32.82c.05-.4-.05-.8-.3-1.12-.25-.32-.6-.53-1-.58l-95.34-12.68c-.4-.06-.8.05-1.12.3-.32.25-.53.6-.58,1l-3.55,26.71c4.13-1.83,8.7-2.5,13.28-1.89,13.54,1.8,23.09,14.28,21.29,27.82-.87,6.56-4.25,12.38-9.5,16.41-5.26,4.02-11.76,5.75-18.32,4.88-4.57-.61-8.81-2.45-12.32-5.3Z"/>
  <path class="uuid-88e368a1-8eef-4fde-b73e-fac9a92f1932" d="m1569.72,520.44c-2.46,0-4.95-.37-7.42-1.14-13.03-4.1-20.3-18.03-16.2-31.06,1.52-4.83,4.48-9.05,8.42-12.11l-26.44-8.31c-3.42-1.08-5.33-4.74-4.26-8.16l28.86-91.75c1.08-3.42,4.75-5.34,8.16-4.26l91.75,28.86c3.42,1.08,5.33,4.74,4.26,8.16l-8.29,26.34c4.76-1.46,9.9-1.47,14.72.04,6.32,1.99,11.48,6.31,14.54,12.19,3.06,5.87,3.65,12.59,1.67,18.9-4.1,13.04-18.04,20.31-31.09,16.21-4.82-1.52-9.03-4.47-12.1-8.39l-8.32,26.45c-1.08,3.42-4.74,5.33-8.16,4.26l-26.44-8.32c1.47,4.77,1.49,9.92-.03,14.75-3.32,10.57-13.12,17.34-23.65,17.34Zm-10.83-152.11c-.64,0-1.24.41-1.44,1.06l-19.25,61.21h0l-9.61,30.54c-.25.79.19,1.64.99,1.89l31.69,9.97c.99.31,1.68,1.2,1.75,2.23.06,1.03-.52,2-1.46,2.43-5.11,2.32-9,6.72-10.69,12.07-3.27,10.4,2.53,21.52,12.93,24.79,10.39,3.27,21.52-2.53,24.79-12.93,1.68-5.35,1-11.18-1.86-16.01-.53-.89-.45-2.02.19-2.83s1.72-1.14,2.71-.83l31.69,9.97c.8.25,1.64-.19,1.89-.99l9.97-31.69c.31-.99,1.2-1.68,2.23-1.75,1.04-.06,2,.51,2.43,1.45,2.33,5.09,6.73,8.97,12.06,10.65,10.41,3.27,21.55-2.53,24.82-12.94,1.59-5.04,1.11-10.4-1.33-15.09-2.44-4.69-6.57-8.14-11.61-9.73-5.34-1.68-11.16-1.01-15.99,1.83-.89.52-2.01.45-2.82-.2-.81-.64-1.14-1.72-.83-2.71l9.93-31.58c.25-.79-.19-1.64-.99-1.89l-91.75-28.86c-.15-.05-.3-.07-.45-.07Z"/>
  <path class="uuid-342b504b-d7a5-446b-a7ab-0202e809517a" d="m374.19,890.54c-1.62,0-3.17-.6-4.38-1.7-1.29-1.17-2.04-2.77-2.12-4.51l-4.44-96.08c-.17-3.59,2.62-6.64,6.2-6.8l96.08-4.44c3.58-.16,6.64,2.62,6.8,6.2h0l1.28,27.68c3.97-3.02,8.8-4.81,13.86-5.04.39-.02.77-.03,1.16-.03,13.14,0,24.12,10.37,24.73,23.63.31,6.61-1.98,12.94-6.44,17.83-4.46,4.89-10.55,7.75-17.16,8.06-5.06.22-10.04-1.1-14.27-3.74l1.28,27.69c.17,3.58-2.62,6.64-6.2,6.8l-31.98,1.48c-.97.06-1.93-.51-2.37-1.41-.43-.9-.29-1.98.37-2.73,3.37-3.86,5.1-8.81,4.87-13.92-.5-10.89-9.78-19.3-20.67-18.84-10.89.5-19.34,9.77-18.84,20.67.24,5.11,2.41,9.88,6.13,13.41.73.69.97,1.75.62,2.69-.35.94-1.23,1.58-2.23,1.62l-31.98,1.48c-.1,0-.21,0-.31,0Zm91.64-108.54s-.05,0-.07,0l-96.08,4.44c-.83.04-1.48.75-1.44,1.58l4.44,96.08c.02.4.19.77.49,1.05.3.27.7.41,1.09.39l26.92-1.24c-2.54-3.74-4.01-8.12-4.22-12.73-.31-6.61,1.98-12.94,6.44-17.83,4.46-4.89,10.55-7.75,17.16-8.06,13.63-.66,25.26,9.96,25.89,23.6.21,4.61-.85,9.1-3.03,13.06l26.92-1.25c.4-.02.77-.19,1.05-.49s.41-.68.39-1.09l-1.53-33.19c-.05-1.03.55-1.99,1.5-2.41.95-.41,2.06-.2,2.78.54,3.94,4,9.41,6.15,15.01,5.89,5.28-.24,10.14-2.53,13.7-6.43,3.56-3.9,5.38-8.96,5.14-14.23-.5-10.89-9.78-19.31-20.67-18.84-5.6.26-10.85,2.9-14.4,7.25-.66.8-1.74,1.11-2.72.79-.98-.33-1.66-1.22-1.71-2.26l-1.54-33.19c-.04-.81-.71-1.44-1.51-1.44Z"/>
  <path class="uuid-342b504b-d7a5-446b-a7ab-0202e809517a" d="m353.87,543.37c-7.71,0-15.32-3.58-20.16-10.3-2.98-4.15-4.58-9.08-4.66-14.11l-22.53,16.21c-2.91,2.1-6.99,1.43-9.09-1.48l-56.18-78.07c-1.02-1.41-1.42-3.13-1.14-4.85.28-1.72,1.21-3.22,2.62-4.24l22.5-16.19c-4.7-1.68-8.83-4.75-11.79-8.86-7.98-11.09-5.45-26.6,5.64-34.58,5.37-3.86,11.92-5.41,18.46-4.34,6.53,1.06,12.25,4.61,16.12,9.98,2.96,4.11,4.56,9.01,4.66,14l22.5-16.19c1.41-1.02,3.13-1.42,4.85-1.14,1.72.28,3.22,1.21,4.24,2.62l18.7,25.99c.58.81.63,1.9.11,2.75-.52.86-1.5,1.32-2.49,1.18-5.08-.72-10.16.53-14.32,3.52-8.85,6.37-10.87,18.75-4.5,27.6,6.37,8.85,18.75,10.87,27.6,4.5,4.16-2.99,6.96-7.42,7.89-12.46.18-.98.93-1.77,1.91-1.99.98-.22,1.99.17,2.58.98l18.7,25.99c2.1,2.91,1.43,6.99-1.48,9.09l-22.53,16.21c4.74,1.67,8.91,4.75,11.9,8.9,7.99,11.1,5.45,26.62-5.64,34.61-4.37,3.15-9.43,4.66-14.45,4.66Zm-21.78-32.18c.48,0,.96.14,1.38.41.87.57,1.29,1.62,1.06,2.63-1.24,5.52-.06,11.32,3.24,15.91,6.38,8.86,18.77,10.88,27.63,4.5,8.86-6.38,10.88-18.77,4.5-27.63-3.3-4.58-8.42-7.55-14.05-8.12-1.03-.11-1.89-.84-2.16-1.84-.27-1,.11-2.07.96-2.67l27.03-19.45c.33-.24.54-.58.61-.98.07-.4-.03-.8-.26-1.12l-15.74-21.87c-1.75,4.17-4.62,7.79-8.36,10.49-5.37,3.87-11.92,5.41-18.46,4.34-6.53-1.06-12.25-4.61-16.12-9.98-7.98-11.09-5.45-26.6,5.64-34.58,3.74-2.69,8.09-4.26,12.6-4.59l-15.74-21.87c-.24-.33-.58-.54-.98-.61-.4-.07-.8.03-1.12.26l-26.97,19.41c-.84.61-1.97.63-2.83.06-.87-.57-1.29-1.61-1.07-2.62,1.2-5.48.01-11.24-3.26-15.79-3.08-4.29-7.65-7.12-12.87-7.97-5.21-.85-10.44.38-14.73,3.47-8.85,6.37-10.87,18.75-4.5,27.6,3.27,4.55,8.35,7.5,13.93,8.11,1.03.11,1.88.85,2.15,1.85.26,1-.12,2.06-.96,2.67l-26.97,19.41c-.33.24-.54.58-.61.98-.06.4.03.8.27,1.13l56.18,78.07c.49.67,1.43.83,2.11.34h0l27.03-19.45c.44-.31.95-.47,1.46-.47Z"/>
  <path class="uuid-342b504b-d7a5-446b-a7ab-0202e809517a" d="m404.89,686.69c-1.71,0-3.31-.65-4.54-1.85-1.25-1.21-1.94-2.84-1.97-4.58l-.36-27.61c-4.06,2.87-8.94,4.49-14,4.56h0c-.11,0-.22,0-.33,0-13.52,0-24.61-10.91-24.79-24.47-.09-6.62,2.41-12.88,7.03-17.63,4.62-4.74,10.81-7.4,17.44-7.49,5.05-.04,9.97,1.42,14.11,4.19l-.36-27.73c-.05-3.59,2.84-6.55,6.43-6.59l27.71-.36c-2.89-4.07-4.51-8.96-4.58-14.02-.18-13.66,10.79-24.92,24.45-25.09.11,0,.22,0,.33,0,13.51,0,24.59,10.9,24.77,24.45.07,5.07-1.43,9.99-4.21,14.14l27.71-.36h.09c3.55,0,6.46,2.86,6.51,6.42l.42,32.02c.01,1-.57,1.91-1.49,2.32-.92.41-1.99.23-2.72-.46-3.75-3.5-8.66-5.38-13.75-5.33-5.28.07-10.22,2.19-13.9,5.97s-5.68,8.77-5.61,14.06c.14,10.81,8.98,19.51,19.77,19.51.09,0,.17,0,.26,0,5.12-.07,9.95-2.08,13.61-5.68.71-.7,1.78-.91,2.71-.53.93.38,1.54,1.28,1.55,2.28l.42,32.02c.02,1.74-.63,3.38-1.85,4.63s-2.84,1.94-4.58,1.97l-96.17,1.25h-.09Zm-4.44-42.06c.29,0,.58.05.87.16.97.36,1.62,1.28,1.63,2.31l.43,33.1c0,.4.17.78.46,1.06s.67.46,1.07.43l96.18-1.25c.4,0,.78-.17,1.06-.46.28-.29.43-.67.43-1.07l-.35-26.95c-3.82,2.41-8.25,3.74-12.86,3.8-.11,0-.22,0-.33,0-13.51,0-24.59-10.9-24.77-24.45-.18-13.66,10.79-24.92,24.45-25.09,4.57-.03,9.07,1.15,12.96,3.46l-.35-26.95c0-.4-.17-.78-.46-1.06-.29-.28-.65-.42-1.07-.43l-33.22.43h-.03c-1.02,0-1.94-.62-2.32-1.58-.38-.96-.13-2.06.63-2.76,4.13-3.8,6.45-9.2,6.38-14.8-.14-10.81-8.99-19.51-19.77-19.51-.09,0-.17,0-.26,0-10.9.14-19.65,9.13-19.51,20.03.07,5.6,2.54,10.94,6.77,14.63.78.68,1.06,1.77.7,2.75-.36.97-1.28,1.62-2.31,1.64l-33.22.43c-.83.01-1.5.7-1.49,1.53l.43,33.22c.01,1.03-.61,1.97-1.57,2.35-.96.38-2.06.14-2.76-.62-3.75-4.04-9.03-6.35-14.53-6.35-.09,0-.17,0-.26,0-5.29.07-10.23,2.19-13.92,5.98-3.69,3.79-5.68,8.78-5.61,14.07.14,10.83,8.99,19.54,19.79,19.54.09,0,.17,0,.26,0h0c5.59-.07,10.92-2.53,14.61-6.73.48-.55,1.17-.85,1.88-.85Z"/>
  <g>
    <path class="uuid-342b504b-d7a5-446b-a7ab-0202e809517a" d="m891.5,527.91c-2.46,0-4.95-.37-7.42-1.14-13.03-4.1-20.3-18.03-16.2-31.06,1.52-4.83,4.48-9.05,8.42-12.11l-26.44-8.31c-3.42-1.08-5.33-4.74-4.26-8.16l28.86-91.75c1.08-3.42,4.75-5.33,8.16-4.26l91.75,28.86c3.42,1.08,5.33,4.74,4.26,8.16l-4.77-1.5c.25-.79-.19-1.65-.99-1.9l-91.75-28.86c-.79-.25-1.64.19-1.89.99l-28.86,91.75c-.25.79.19,1.64.99,1.89l31.69,9.97c.99.31,1.68,1.2,1.75,2.23.06,1.03-.52,2-1.46,2.43-5.11,2.32-9,6.72-10.69,12.07-3.27,10.4,2.53,21.52,12.93,24.79,10.4,3.27,21.52-2.53,24.79-12.93,1.68-5.35,1-11.18-1.86-16.01-.53-.89-.45-2.02.19-2.83s1.72-1.14,2.71-.83l31.69,9.97c.38.12.79.08,1.15-.1.36-.19.62-.5.74-.89l4.77,1.5c-.52,1.66-1.66,3.02-3.2,3.82-1.54.8-3.3.96-4.96.44l-26.44-8.32c1.47,4.77,1.49,9.92-.03,14.75-3.32,10.57-13.12,17.34-23.65,17.34Z"/>
    <path class="uuid-88e368a1-8eef-4fde-b73e-fac9a92f1932" d="m991.35,558.11c-2.47,0-4.95-.37-7.38-1.13-13.04-4.05-20.36-17.96-16.31-31,1.5-4.84,4.45-9.06,8.37-12.14l-26.47-8.22c-3.43-1.07-5.35-4.72-4.29-8.15l9.49-30.58c.3-.96,1.14-1.64,2.13-1.75,1-.1,1.96.4,2.44,1.28,2.48,4.49,6.54,7.79,11.43,9.31,5.04,1.57,10.39,1.08,15.07-1.39,4.67-2.46,8.11-6.59,9.68-11.63,1.57-5.04,1.07-10.4-1.38-15.07s-6.59-8.11-11.63-9.68c-4.89-1.52-10.11-1.09-14.7,1.2-.89.44-1.97.32-2.74-.33-.76-.65-1.07-1.69-.77-2.65l9.49-30.58c.52-1.66,1.65-3.02,3.19-3.83,1.54-.81,3.3-.97,4.96-.46l91.86,28.52c3.43,1.06,5.35,4.72,4.29,8.15l-8.19,26.37c4.75-1.48,9.9-1.51,14.72,0h0c6.33,1.96,11.51,6.27,14.59,12.13,3.08,5.86,3.7,12.57,1.74,18.9-4.05,13.06-17.97,20.38-31.03,16.33-4.83-1.5-9.05-4.44-12.13-8.34l-8.22,26.48c-.52,1.66-1.65,3.02-3.19,3.83s-3.3.97-4.96.46l-26.47-8.22c1.49,4.76,1.53,9.91.02,14.75-1.96,6.32-6.27,11.5-12.12,14.58-3.61,1.9-7.54,2.86-11.5,2.86Zm-33.31-84.89l-7.99,25.74c-.25.79.2,1.64,1,1.89l31.73,9.85c.99.31,1.69,1.19,1.75,2.23.07,1.03-.51,2-1.45,2.43-5.1,2.34-8.98,6.75-10.64,12.11-3.23,10.41,2.61,21.51,13.02,24.75,5.04,1.57,10.39,1.08,15.07-1.39,4.67-2.46,8.11-6.59,9.68-11.63,1.66-5.35.96-11.19-1.91-16-.53-.89-.46-2.01.18-2.83s1.72-1.15,2.71-.84l31.73,9.85c.79.25,1.64-.2,1.89-1l9.85-31.73c.31-.99,1.19-1.69,2.22-1.75,1.03-.08,2,.51,2.43,1.45,2.35,5.08,6.76,8.95,12.1,10.6,10.42,3.24,21.54-2.61,24.77-13.03,1.57-5.05,1.08-10.41-1.39-15.09-2.46-4.68-6.6-8.12-11.65-9.69h0c-5.34-1.66-11.16-.97-15.98,1.89-.89.53-2.01.45-2.83-.19-.81-.64-1.15-1.72-.84-2.7l9.82-31.62c.12-.38.08-.79-.11-1.15-.19-.36-.5-.62-.89-.74l-91.86-28.52c-.79-.24-1.64.2-1.89,1l-7.99,25.73c4.38-1.11,9-1,13.4.36,6.32,1.96,11.5,6.27,14.58,12.12,3.08,5.86,3.7,12.56,1.74,18.88s-6.27,11.5-12.12,14.58c-5.85,3.08-12.56,3.7-18.88,1.74-4.4-1.37-8.27-3.89-11.25-7.29Z"/>
  </g>
  <path class="uuid-342b504b-d7a5-446b-a7ab-0202e809517a" d="m327.74,764.06c-.34,0-.69-.03-1.04-.08l-94.96-15.27c-3.54-.57-5.96-3.92-5.39-7.46l4.38-27.26c-4.5,2.13-9.58,2.89-14.57,2.09-13.5-2.17-22.71-14.92-20.54-28.42,2.17-13.5,14.91-22.71,28.42-20.54,4.99.8,9.58,3.11,13.18,6.55l4.4-27.38c.57-3.55,3.93-5.96,7.46-5.4l27.36,4.4c-2.15-4.5-2.91-9.6-2.1-14.6,1.05-6.53,4.58-12.27,9.94-16.14s11.91-5.43,18.45-4.38c6.53,1.05,12.27,4.58,16.14,9.94s5.43,11.91,4.38,18.45c-.8,5-3.13,9.6-6.58,13.2l27.36,4.4c3.54.57,5.96,3.92,5.4,7.46l-15.27,94.96c-.51,3.2-3.29,5.48-6.42,5.48Zm-93.67-57.6c.43,0,.87.11,1.26.34.89.52,1.38,1.54,1.21,2.56l-5.25,32.69c-.13.82.43,1.6,1.25,1.73l94.96,15.27c.81.14,1.6-.43,1.73-1.25l10.18-63.35h0l5.08-31.61c.13-.82-.43-1.6-1.25-1.73l-32.8-5.27c-1.02-.17-1.84-.94-2.05-1.96-.21-1.01.22-2.05,1.09-2.61,4.72-3.04,7.94-7.96,8.83-13.49,1.73-10.76-5.62-20.93-16.38-22.66-10.77-1.74-20.93,5.62-22.66,16.38-.89,5.53.62,11.21,4.15,15.57.65.81.74,1.93.22,2.83-.52.9-1.54,1.37-2.56,1.22l-32.8-5.27c-.39-.06-.8.03-1.12.27-.33.24-.54.59-.61.98l-5.27,32.8c-.17,1.02-.94,1.84-1.95,2.05-1.01.21-2.05-.22-2.61-1.09-3.04-4.7-7.95-7.9-13.47-8.79-10.78-1.74-20.95,5.62-22.68,16.4-.84,5.22.4,10.46,3.5,14.74,3.1,4.29,7.68,7.11,12.9,7.95,5.52.89,11.19-.61,15.55-4.12.45-.37,1.01-.55,1.57-.55Z"/>
  <g>
    <path class="uuid-342b504b-d7a5-446b-a7ab-0202e809517a" d="m1113.67,714.77c-.35,0-.7-.03-1.05-.08l.8-4.94c.4.06.8-.03,1.12-.27.33-.24.54-.58.61-.98l5.3-32.8c.17-1.02.94-1.84,1.96-2.05,1.01-.21,2.05.22,2.61,1.1,3.04,4.72,7.95,7.94,13.48,8.84,10.78,1.75,20.93-5.6,22.67-16.37.84-5.21-.4-10.44-3.49-14.73-3.09-4.28-7.67-7.1-12.88-7.95-5.53-.89-11.21.62-15.58,4.14-.81.65-1.93.74-2.83.22-.9-.52-1.38-1.54-1.21-2.56l5.3-32.8c.06-.4-.03-.8-.27-1.12-.24-.33-.58-.54-.98-.61l-94.95-15.35c-.4-.06-.8.03-1.13.27-.33.24-.54.58-.61.98l-5.31,32.87c-.17,1.03-.95,1.84-1.96,2.05-1.02.21-2.06-.23-2.61-1.11-3.04-4.78-7.97-8.04-13.55-8.94-10.77-1.74-20.96,5.61-22.7,16.38-.84,5.22.4,10.46,3.49,14.74,3.09,4.29,7.67,7.11,12.89,7.96,5.59.9,11.29-.63,15.68-4.21.8-.66,1.93-.75,2.83-.23.9.52,1.38,1.54,1.22,2.56l-5.31,32.87c-.13.82.43,1.6,1.25,1.73l-.8,4.94c-3.54-.57-5.96-3.92-5.39-7.46l4.43-27.4c-4.53,2.18-9.66,2.95-14.7,2.14-6.54-1.06-12.27-4.6-16.15-9.97s-5.43-11.93-4.37-18.47c2.18-13.49,14.94-22.71,28.43-20.52,5.04.81,9.67,3.17,13.28,6.66l4.43-27.4c.28-1.72,1.21-3.22,2.62-4.24s3.13-1.42,4.85-1.15l94.95,15.35c1.72.28,3.22,1.21,4.24,2.62,1.02,1.41,1.42,3.13,1.15,4.85l-4.42,27.36c4.5-2.14,9.6-2.9,14.6-2.09,6.53,1.06,12.26,4.59,16.13,9.96,3.87,5.37,5.42,11.92,4.37,18.45-2.18,13.48-14.92,22.69-28.41,20.5-5-.81-9.6-3.13-13.2-6.59l-4.42,27.36c-.28,1.72-1.21,3.22-2.62,4.24-1.12.81-2.44,1.23-3.79,1.23Z"/>
    <path class="uuid-88e368a1-8eef-4fde-b73e-fac9a92f1932" d="m1097.1,817.6c-.35,0-.7-.03-1.05-.08l-94.96-15.27c-1.72-.28-3.22-1.2-4.24-2.61-1.02-1.41-1.43-3.13-1.15-4.85l4.38-27.27c-4.5,2.13-9.58,2.89-14.57,2.09-13.5-2.17-22.71-14.92-20.54-28.42,1.05-6.54,4.59-12.28,9.95-16.16,5.37-3.88,11.92-5.44,18.46-4.39,4.99.8,9.58,3.11,13.18,6.55l4.4-27.38c.28-1.72,1.21-3.22,2.61-4.24,1.41-1.02,3.13-1.43,4.85-1.15l27.36,4.4c-2.15-4.5-2.91-9.6-2.11-14.6,1.05-6.53,4.58-12.27,9.94-16.14,5.36-3.87,11.91-5.43,18.45-4.38,6.53,1.05,12.27,4.58,16.14,9.94s5.43,11.91,4.38,18.45c-.8,5-3.12,9.6-6.58,13.2l27.36,4.4c3.54.57,5.96,3.92,5.39,7.46l-5.08,31.61h0l-10.18,63.35c-.28,1.72-1.2,3.22-2.61,4.24-1.12.81-2.44,1.24-3.8,1.24Zm-93.68-57.6c.43,0,.87.11,1.26.34.89.52,1.38,1.54,1.21,2.56l-5.25,32.69c-.06.4.03.8.27,1.12.24.33.59.54.98.61l94.96,15.27c.4.06.8-.03,1.12-.27.33-.24.54-.59.61-.98l15.27-94.96c.13-.82-.43-1.6-1.25-1.73l-32.8-5.27c-1.02-.17-1.84-.94-2.05-1.96-.21-1.01.22-2.05,1.09-2.61,4.72-3.04,7.94-7.95,8.83-13.49.84-5.21-.4-10.44-3.5-14.72-3.09-4.28-7.67-7.1-12.88-7.94-5.22-.84-10.44.4-14.72,3.5s-7.1,7.67-7.94,12.88c-.89,5.53.62,11.21,4.15,15.58.65.81.74,1.93.22,2.83-.52.9-1.53,1.37-2.56,1.22l-32.8-5.27c-.83-.14-1.6.43-1.73,1.25l-5.27,32.8c-.17,1.02-.94,1.84-1.95,2.05-1.01.21-2.05-.22-2.61-1.09-3.04-4.7-7.95-7.9-13.47-8.79-5.22-.84-10.45.41-14.74,3.5-4.29,3.1-7.11,7.68-7.95,12.9-1.73,10.78,5.62,20.95,16.4,22.68,5.52.89,11.19-.61,15.55-4.12.45-.37,1.01-.55,1.57-.55Z"/>
  </g>
  <g>
    <path class="uuid-88e368a1-8eef-4fde-b73e-fac9a92f1932" d="m847.96,799.25c-7.71,0-15.32-3.58-20.16-10.3-2.98-4.15-4.58-9.08-4.66-14.11l-22.53,16.21c-2.91,2.09-6.99,1.43-9.09-1.48l-56.18-78.07c-2.1-2.91-1.43-6.99,1.48-9.09l22.5-16.19c-4.7-1.68-8.83-4.75-11.79-8.86-7.98-11.09-5.45-26.6,5.64-34.58,5.37-3.86,11.93-5.4,18.46-4.34,6.53,1.06,12.26,4.61,16.12,9.98,2.96,4.11,4.56,9.01,4.66,14l22.5-16.19c2.91-2.09,6.99-1.43,9.09,1.48l-4.06,2.92c-.49-.68-1.43-.83-2.11-.34l-26.97,19.41c-.84.61-1.97.63-2.83.06-.87-.57-1.29-1.61-1.07-2.62,1.2-5.48.01-11.24-3.26-15.79-3.08-4.29-7.65-7.12-12.87-7.96-5.21-.85-10.44.38-14.73,3.47-4.29,3.08-7.12,7.65-7.97,12.87-.85,5.21.38,10.44,3.47,14.73,3.27,4.55,8.35,7.5,13.93,8.11,1.03.11,1.88.85,2.15,1.85.26,1-.12,2.06-.96,2.67l-26.97,19.41c-.67.49-.83,1.43-.34,2.11l56.18,78.07c.49.67,1.43.83,2.11.34l27.03-19.45c.84-.61,1.97-.63,2.84-.06.87.57,1.29,1.62,1.06,2.63-1.24,5.52-.06,11.32,3.24,15.91,6.38,8.86,18.77,10.88,27.63,4.5,4.29-3.09,7.12-7.66,7.97-12.88.85-5.22-.38-10.46-3.47-14.75-3.3-4.58-8.42-7.55-14.05-8.12-1.03-.11-1.89-.84-2.16-1.84-.27-1,.11-2.07.96-2.67l27.03-19.45c.33-.24.54-.58.61-.98.07-.4-.03-.8-.26-1.12l-18.7-25.99,4.06-2.92,18.7,25.99c1.02,1.41,1.42,3.13,1.14,4.85-.28,1.72-1.21,3.22-2.62,4.24l-22.53,16.21c4.74,1.67,8.91,4.75,11.9,8.9,3.87,5.38,5.41,11.94,4.35,18.47-1.07,6.54-4.61,12.27-9.99,16.13-4.37,3.15-9.43,4.66-14.45,4.66Z"/>
    <path class="uuid-342b504b-d7a5-446b-a7ab-0202e809517a" d="m881.56,731.69c-2.03,0-4.02-.94-5.29-2.71h0l-16.18-22.5c-1.68,4.7-4.75,8.83-8.86,11.79-5.37,3.86-11.93,5.41-18.46,4.34-6.53-1.07-12.25-4.61-16.12-9.98-7.97-11.09-5.44-26.6,5.65-34.58,4.11-2.96,9.01-4.56,14-4.65l-16.18-22.5c-2.1-2.92-1.43-6.99,1.48-9.09l26-18.69c.81-.58,1.9-.63,2.75-.11.86.52,1.32,1.5,1.18,2.49-.72,5.08.53,10.16,3.52,14.32,3.08,4.29,7.65,7.12,12.86,7.97,5.21.85,10.44-.38,14.73-3.46,8.85-6.37,10.88-18.75,4.51-27.6-2.99-4.16-7.41-6.96-12.46-7.89-.99-.18-1.77-.93-1.99-1.91-.22-.98.17-1.99.98-2.58l26-18.69c2.91-2.1,6.99-1.43,9.09,1.48l56.15,78.09c2.1,2.91,1.43,6.99-1.48,9.09l-78.09,56.15c-1.15.83-2.48,1.22-3.79,1.22Zm-1.24-5.63c.49.68,1.43.83,2.11.34l78.09-56.15c.68-.49.83-1.43.35-2.11l-56.15-78.09c-.49-.68-1.43-.83-2.11-.34l-21.88,15.73c4.17,1.75,7.79,4.62,10.48,8.36,7.97,11.09,5.44,26.6-5.65,34.58-5.37,3.86-11.92,5.4-18.46,4.34-6.53-1.07-12.25-4.61-16.12-9.99-2.69-3.75-4.26-8.09-4.59-12.6l-21.88,15.73c-.68.49-.83,1.43-.34,2.11l19.4,26.97c.61.84.63,1.97.06,2.83-.57.86-1.61,1.29-2.62,1.07-5.48-1.21-11.24-.02-15.79,3.25-8.85,6.37-10.87,18.75-4.51,27.6,6.37,8.85,18.75,10.87,27.6,4.51,4.55-3.27,7.51-8.35,8.11-13.93.11-1.03.85-1.88,1.85-2.15,1-.26,2.06.12,2.67.96l19.4,26.97Z"/>
  </g>
  <path class="uuid-342b504b-d7a5-446b-a7ab-0202e809517a" d="m728.68,603.9c.05-.07.08-.14.12-.22.03-.07.07-.13.1-.2.03-.09.06-.17.08-.26.02-.06.04-.13.05-.19.03-.15.04-.3.05-.45,0,0,0-.02,0-.02s0-.02,0-.02c0-.15-.02-.3-.05-.45-.01-.07-.04-.13-.05-.19-.02-.09-.05-.18-.08-.26-.03-.07-.07-.14-.1-.2-.04-.07-.07-.15-.12-.22-.04-.07-.1-.13-.15-.2-.04-.05-.07-.1-.11-.15l-13.33-14.49c-.93-1.02-2.51-1.08-3.53-.15-1.02.93-1.08,2.52-.15,3.53l9.47,10.3h-180.85c-1.38,0-2.5,1.12-2.5,2.5s1.12,2.5,2.5,2.5h180.85l-9.47,10.3c-.93,1.02-.87,2.6.15,3.53.48.44,1.09.66,1.69.66.67,0,1.35-.27,1.84-.81l13.33-14.49s.07-.1.11-.15c.05-.06.1-.13.15-.2Z"/>
  <path class="uuid-88e368a1-8eef-4fde-b73e-fac9a92f1932" d="m1364,600.05h-180.85l9.47-10.3c.93-1.02.87-2.6-.15-3.53-1.02-.94-2.6-.87-3.53.15l-13.33,14.49s-.07.1-.11.15c-.05.06-.1.13-.15.2-.05.07-.08.14-.12.22-.03.07-.07.13-.1.2-.03.09-.06.17-.08.26-.02.06-.04.13-.05.19-.03.15-.04.3-.05.45,0,0,0,.02,0,.02s0,.02,0,.02c0,.15.02.3.05.45.01.07.04.13.05.19.02.09.05.18.08.26.03.07.07.14.1.2.04.07.07.15.12.22.04.07.1.13.15.2.04.05.07.1.11.15l13.33,14.49c.49.54,1.17.81,1.84.81.6,0,1.21-.22,1.69-.66,1.02-.93,1.08-2.52.15-3.53l-9.47-10.3h180.85c1.38,0,2.5-1.12,2.5-2.5s-1.12-2.5-2.5-2.5Z"/>
  <g>
    <path class="uuid-342b504b-d7a5-446b-a7ab-0202e809517a" d="m785.71,154.56h2.5c1.01,0,1.84-.14,2.5-.42.66-.28,1.23-.72,1.71-1.33l15.84-20.05c.66-.85,1.36-1.44,2.08-1.77.73-.33,1.65-.5,2.76-.5h9.21l-19.34,23.86c-1.14,1.46-2.32,2.49-3.53,3.1.87.32,1.66.76,2.36,1.33.7.57,1.37,1.32,2,2.24l19.93,26.88h-9.41c-1.27,0-2.22-.18-2.84-.54-.62-.36-1.14-.88-1.57-1.57l-16.24-21.2c-.5-.71-1.09-1.22-1.75-1.51-.66-.29-1.61-.44-2.86-.44h-3.38v25.25h-10.68v-57.41h10.68v24.06Z"/>
    <path class="uuid-342b504b-d7a5-446b-a7ab-0202e809517a" d="m839.43,135.3c0,.85-.17,1.64-.52,2.38-.34.74-.8,1.39-1.37,1.95-.57.56-1.24,1-2,1.33-.77.33-1.59.5-2.46.5s-1.65-.16-2.4-.5c-.75-.33-1.41-.77-1.97-1.33-.56-.56-1-1.2-1.33-1.95-.33-.74-.5-1.54-.5-2.38s.16-1.69.5-2.46c.33-.77.77-1.43,1.33-1.99.56-.56,1.21-1,1.97-1.33.75-.33,1.55-.5,2.4-.5s1.69.17,2.46.5c.77.33,1.44.77,2,1.33s1.03,1.22,1.37,1.99c.34.77.52,1.59.52,2.46Zm-1.35,11.87v40.74h-9.85v-40.74h9.85Z"/>
    <path class="uuid-342b504b-d7a5-446b-a7ab-0202e809517a" d="m861.67,188.54c-3.55,0-6.27-1-8.16-3-1.89-2-2.84-4.76-2.84-8.28v-22.75h-4.17c-.53,0-.98-.17-1.35-.52-.37-.34-.56-.86-.56-1.55v-3.89l6.55-1.07,2.06-11.12c.13-.53.38-.94.75-1.23.37-.29.85-.44,1.43-.44h5.08v12.82h10.88v6.99h-10.88v22.08c0,1.27.31,2.26.93,2.98.62.71,1.48,1.07,2.56,1.07.61,0,1.12-.07,1.53-.22s.77-.3,1.07-.46c.3-.16.58-.31.81-.46.24-.15.48-.22.71-.22.29,0,.53.07.72.22.18.15.38.36.6.65l2.94,4.76c-1.43,1.19-3.07,2.09-4.92,2.7-1.85.61-3.77.91-5.76.91Z"/>
    <path class="uuid-342b504b-d7a5-446b-a7ab-0202e809517a" d="m876.67,152.85c4.68-4.29,10.32-6.43,16.91-6.43,2.38,0,4.51.39,6.39,1.17,1.88.78,3.47,1.87,4.76,3.26,1.3,1.39,2.28,3.05,2.96,4.98.67,1.93,1.01,4.05,1.01,6.35v25.73h-4.45c-.93,0-1.64-.14-2.14-.42s-.9-.84-1.19-1.69l-.87-2.94c-1.03.93-2.04,1.74-3.02,2.44-.98.7-2,1.29-3.06,1.77-1.06.48-2.19.84-3.39,1.09s-2.53.38-3.99.38c-1.72,0-3.31-.23-4.76-.69-1.46-.46-2.71-1.16-3.77-2.08s-1.88-2.08-2.46-3.45c-.58-1.38-.87-2.98-.87-4.8,0-1.03.17-2.06.52-3.08.34-1.02.91-1.99,1.69-2.92.78-.93,1.79-1.8,3.04-2.62,1.24-.82,2.77-1.54,4.59-2.14,1.81-.61,3.92-1.1,6.33-1.49,2.41-.38,5.16-.62,8.26-.69v-2.38c0-2.73-.58-4.74-1.75-6.06-1.16-1.31-2.85-1.97-5.04-1.97-1.59,0-2.91.19-3.95.56-1.05.37-1.97.79-2.76,1.25-.79.46-1.52.88-2.16,1.25-.65.37-1.37.56-2.16.56-.69,0-1.27-.18-1.75-.54-.48-.36-.86-.77-1.15-1.25l-1.75-3.14Zm22.47,17.67c-2.83.13-5.22.38-7.15.73-1.93.36-3.48.81-4.65,1.37-1.16.56-2,1.2-2.5,1.95-.5.74-.75,1.55-.75,2.42,0,1.72.51,2.95,1.53,3.69,1.02.74,2.35,1.11,3.99,1.11,2.01,0,3.75-.36,5.22-1.09,1.47-.73,2.91-1.83,4.31-3.32v-6.87Z"/>
    <path class="uuid-88e368a1-8eef-4fde-b73e-fac9a92f1932" d="m980.86,130.5v57.41h-9.41v-37.08c0-1.48.08-3.08.24-4.8l-17.35,32.6c-.82,1.56-2.08,2.34-3.77,2.34h-1.51c-1.69,0-2.95-.78-3.77-2.34l-17.55-32.72c.08.87.15,1.73.2,2.58.05.85.08,1.63.08,2.34v37.08h-9.41v-57.41h8.06c.48,0,.89.01,1.23.04.34.03.66.09.93.2.28.11.53.28.75.52.22.24.44.56.65.95l17.19,31.88c.45.85.87,1.72,1.25,2.62.38.9.76,1.83,1.13,2.78.37-.98.75-1.93,1.15-2.84s.82-1.79,1.27-2.64l16.95-31.8c.21-.4.44-.71.67-.95s.5-.41.77-.52c.28-.11.59-.17.93-.2.34-.03.75-.04,1.23-.04h8.06Z"/>
    <path class="uuid-88e368a1-8eef-4fde-b73e-fac9a92f1932" d="m990.11,152.85c4.68-4.29,10.32-6.43,16.91-6.43,2.38,0,4.51.39,6.39,1.17,1.88.78,3.47,1.87,4.76,3.26,1.3,1.39,2.28,3.05,2.96,4.98.67,1.93,1.01,4.05,1.01,6.35v25.73h-4.45c-.93,0-1.64-.14-2.14-.42s-.9-.84-1.19-1.69l-.87-2.94c-1.03.93-2.04,1.74-3.02,2.44-.98.7-2,1.29-3.06,1.77-1.06.48-2.19.84-3.39,1.09s-2.53.38-3.99.38c-1.72,0-3.31-.23-4.76-.69-1.46-.46-2.71-1.16-3.77-2.08-1.06-.93-1.88-2.08-2.46-3.45-.58-1.38-.87-2.98-.87-4.8,0-1.03.17-2.06.52-3.08.34-1.02.91-1.99,1.69-2.92s1.79-1.8,3.04-2.62c1.24-.82,2.77-1.54,4.59-2.14,1.81-.61,3.92-1.1,6.33-1.49,2.41-.38,5.16-.62,8.26-.69v-2.38c0-2.73-.58-4.74-1.75-6.06-1.16-1.31-2.85-1.97-5.04-1.97-1.59,0-2.91.19-3.95.56-1.05.37-1.97.79-2.76,1.25-.79.46-1.52.88-2.16,1.25-.65.37-1.37.56-2.16.56-.69,0-1.27-.18-1.75-.54-.48-.36-.86-.77-1.15-1.25l-1.75-3.14Zm22.47,17.67c-2.83.13-5.22.38-7.15.73-1.93.36-3.48.81-4.65,1.37-1.16.56-2,1.2-2.5,1.95-.5.74-.75,1.55-.75,2.42,0,1.72.51,2.95,1.53,3.69,1.02.74,2.35,1.11,3.99,1.11,2.01,0,3.75-.36,5.22-1.09,1.47-.73,2.91-1.83,4.31-3.32v-6.87Z"/>
    <path class="uuid-88e368a1-8eef-4fde-b73e-fac9a92f1932" d="m1044.39,188.54c-3.55,0-6.27-1-8.16-3-1.89-2-2.84-4.76-2.84-8.28v-22.75h-4.17c-.53,0-.98-.17-1.35-.52-.37-.34-.56-.86-.56-1.55v-3.89l6.55-1.07,2.06-11.12c.13-.53.38-.94.75-1.23.37-.29.85-.44,1.43-.44h5.08v12.82h10.88v6.99h-10.88v22.08c0,1.27.31,2.26.93,2.98.62.71,1.48,1.07,2.56,1.07.61,0,1.12-.07,1.53-.22.41-.15.77-.3,1.07-.46.3-.16.58-.31.81-.46.24-.15.48-.22.71-.22.29,0,.53.07.71.22.19.15.38.36.6.65l2.94,4.76c-1.43,1.19-3.07,2.09-4.92,2.7-1.85.61-3.77.91-5.76.91Z"/>
    <path class="uuid-88e368a1-8eef-4fde-b73e-fac9a92f1932" d="m1089.21,155.79c-.29.37-.58.66-.85.87-.28.21-.68.32-1.21.32s-.99-.15-1.47-.46c-.48-.3-1.05-.65-1.71-1.03-.66-.38-1.45-.73-2.36-1.03-.91-.3-2.04-.46-3.39-.46-1.72,0-3.23.31-4.53.93-1.3.62-2.38,1.52-3.24,2.68-.86,1.16-1.5,2.57-1.93,4.23-.42,1.65-.64,3.53-.64,5.62s.23,4.1.69,5.8c.46,1.69,1.13,3.12,2.01,4.27.87,1.15,1.93,2.02,3.18,2.62,1.24.6,2.65.89,4.21.89s2.83-.19,3.79-.58c.97-.38,1.78-.81,2.44-1.27.66-.46,1.24-.89,1.73-1.27.49-.38,1.04-.58,1.65-.58.79,0,1.39.3,1.79.91l2.82,3.57c-1.09,1.27-2.26,2.34-3.53,3.2-1.27.86-2.59,1.55-3.95,2.06-1.36.52-2.77.88-4.21,1.09-1.44.21-2.88.32-4.31.32-2.51,0-4.88-.47-7.11-1.41-2.22-.94-4.17-2.31-5.84-4.11-1.67-1.8-2.98-4-3.95-6.61-.97-2.61-1.45-5.58-1.45-8.91,0-2.99.43-5.76,1.29-8.32.86-2.55,2.12-4.76,3.79-6.63,1.67-1.87,3.73-3.33,6.19-4.39,2.46-1.06,5.29-1.59,8.5-1.59s5.71.49,8,1.47c2.29.98,4.35,2.38,6.17,4.21l-2.58,3.57Z"/>
    <path class="uuid-88e368a1-8eef-4fde-b73e-fac9a92f1932" d="m1108.11,151.54c1.59-1.48,3.33-2.69,5.24-3.61,1.91-.93,4.14-1.39,6.71-1.39,2.22,0,4.19.38,5.92,1.13,1.72.75,3.16,1.81,4.31,3.18,1.15,1.36,2.02,2.99,2.62,4.88.6,1.89.89,3.98.89,6.25v25.93h-9.81v-25.93c0-2.49-.57-4.41-1.71-5.78-1.14-1.36-2.87-2.04-5.2-2.04-1.69,0-3.28.38-4.76,1.15-1.48.77-2.89,1.81-4.21,3.14v29.46h-9.81v-59h9.81v22.63Z"/>
  </g>
</svg>