<svg xmlns="http://www.w3.org/2000/svg" width="351" height="213" viewBox="0 0 351 213">
    <path fill="#29293A" fill-rule="evenodd" d="M83.994 191.715c-22.815-9.631-24.786-10.78-54-31.254L0 190.816l7.85 7.496 13.904-14.061c32.885 21.829 70.469 34.244 112.114 24.797 20.465-5.016 39.62-24.83 43.29-45.662 3.022-16.456-.985-31.926-12.073-43.301C145.757 98.7 82.63 79.395 82.63 79.395S36.404 66.46 36.956 43.699c.574-12.697 14.12-21.44 24.19-24.787C98.46 8.285 134.68 28.36 164.457 48.672c.055.043 12.301-11.733 12.301-11.733 21.678-21.71 60.378-20.334 82.987-21.125l40.28.65-118.86 196.31h150.522l10.925-26.552c-20.941 12.491-83.225 13.64-107.761 12.621L350.365 3.01l-157.408.163-22.587 21.46C137.18 2.554 95.32-8.268 55.786 7.418 36.101 14.384 15.484 33.234 13.47 54.402c-3.02 22.144 9.388 40.615 26.865 53.051 33.242 23.194 78.504 18.211 105.671 50.473 16.264 21.645-3.064 56.008-62.012 33.789"/>
</svg>
