<svg xmlns="http://www.w3.org/2000/svg" viewBox="0 0 168 76"><path fill="none" d="M0 0h168v76H0z"/><path fill="#379441" d="M148.995 51.334v1.645h-1.064v.949h1.064v3.746a2.547 2.547 0 0 0 .48 1.787 1.733 1.733 0 0 0 1.348.524 3.038 3.038 0 0 0 1.107-.175l-.057-.934a2.75 2.75 0 0 1-.723.085c-.7 0-.939-.481-.939-1.334v-3.7H152v-.949h-1.789V51.01zm-3.6 5.629a2.144 2.144 0 0 1-.057.539 1.878 1.878 0 0 1-1.83 1.492c-1.348 0-2.029-1.15-2.029-2.54 0-1.52.766-2.654 2.057-2.654a1.836 1.836 0 0 1 1.8 1.448 2.18 2.18 0 0 1 .057.524v1.191zm0-7.19v4.1h-.027a2.3 2.3 0 0 0-2.072-1.048c-1.676 0-3.092 1.4-3.078 3.687 0 2.086 1.275 3.489 2.936 3.489a2.54 2.54 0 0 0 2.342-1.346h.029l.055 1.189h1.119a23.027 23.027 0 0 1-.055-1.772v-8.3h-1.249zm-7.9 7.759a1.343 1.343 0 0 1-.07.4 1.712 1.712 0 0 1-1.662 1.15 1.105 1.105 0 0 1-1.178-1.193c0-1.334 1.547-1.575 2.91-1.547zm1.318 2.311a9.579 9.579 0 0 1-.113-1.645v-2.567c0-1.376-.51-2.808-2.609-2.808a4.264 4.264 0 0 0-2.256.608l.283.823a3.416 3.416 0 0 1 1.787-.512 1.416 1.416 0 0 1 1.561 1.591v.142c-2.652-.014-4.127.892-4.127 2.552a1.956 1.956 0 0 0 2.1 1.972 2.555 2.555 0 0 0 2.1-1.021h.043l.1.864h1.133zm-9.346-8.509v1.645h-1.064v.949h1.064v3.746a2.547 2.547 0 0 0 .48 1.787 1.733 1.733 0 0 0 1.348.524 3.026 3.026 0 0 0 1.101-.175l-.057-.934a2.75 2.75 0 0 1-.723.085c-.695 0-.936-.481-.936-1.334v-3.7h1.785v-.949h-1.785V51.01zm-6.382 8.184a3.917 3.917 0 0 0 1.928.468c1.633 0 2.566-.851 2.566-2.057 0-1.021-.609-1.617-1.8-2.07-.895-.342-1.307-.6-1.307-1.164 0-.512.412-.937 1.15-.937a2.679 2.679 0 0 1 1.4.4l.312-.907a3.413 3.413 0 0 0-1.688-.425 2.115 2.115 0 0 0-2.369 2.013c0 .823.582 1.5 1.815 1.944.924.341 1.277.667 1.277 1.263 0 .568-.424 1.021-1.334 1.021a3.268 3.268 0 0 1-1.643-.5zm-5.618 0a3.917 3.917 0 0 0 1.928.468c1.633 0 2.566-.851 2.566-2.057 0-1.021-.609-1.617-1.8-2.07-.893-.342-1.305-.6-1.305-1.164 0-.512.412-.937 1.148-.937a2.672 2.672 0 0 1 1.4.4l.313-.907a3.413 3.413 0 0 0-1.688-.425 2.115 2.115 0 0 0-2.369 2.013c0 .823.582 1.5 1.816 1.944.922.341 1.277.667 1.277 1.263 0 .568-.426 1.021-1.336 1.021a3.268 3.268 0 0 1-1.643-.5zm-3.93-8.184v1.645h-1.065v.949h1.065v3.746a2.537 2.537 0 0 0 .482 1.787 1.725 1.725 0 0 0 1.346.524 3.015 3.015 0 0 0 1.1-.171l-.055-.934a2.744 2.744 0 0 1-.723.085c-.695 0-.936-.481-.936-1.334v-3.7h1.786v-.949h-1.783V51.01zm-3.364.423a.724.724 0 0 0 0-1.446.713.713 0 0 0-.707.724.7.7 0 0 0 .707.722m-2.623 0a.724.724 0 0 0 0-1.446.726.726 0 0 0-.723.724.717.717 0 0 0 .723.722m2.539 5.775a1.282 1.282 0 0 1-.07.4 1.709 1.709 0 0 1-1.66 1.15 1.105 1.105 0 0 1-1.178-1.193c0-1.334 1.547-1.575 2.908-1.547v1.193zm1.319 2.311a9.579 9.579 0 0 1-.113-1.645v-2.567c0-1.376-.512-2.808-2.609-2.808a4.267 4.267 0 0 0-2.256.608l.283.823a3.42 3.42 0 0 1 1.789-.512 1.417 1.417 0 0 1 1.561 1.591v.142c-2.655-.014-4.126.892-4.126 2.552a1.955 1.955 0 0 0 2.1 1.972 2.556 2.556 0 0 0 2.1-1.021h.043l.1.864h1.127zm-9.346-8.509v1.645h-1.065v.949h1.064v3.746a2.537 2.537 0 0 0 .482 1.787 1.725 1.725 0 0 0 1.346.524 3.026 3.026 0 0 0 1.105-.175l-.057-.93a2.75 2.75 0 0 1-.723.085c-.695 0-.938-.481-.938-1.334v-3.7h1.787v-.949h-1.787V51.01zm-2.979-1.064a.761.761 0 0 0-.781.779.773.773 0 1 0 .781-.779m.623 2.709H98.46v6.864h1.246zm-7.348 6.539a3.919 3.919 0 0 0 1.93.468c1.631 0 2.566-.851 2.566-2.057 0-1.021-.609-1.617-1.8-2.07-.895-.342-1.305-.6-1.305-1.164 0-.512.41-.937 1.148-.937a2.679 2.679 0 0 1 1.4.4l.31-.907a3.4 3.4 0 0 0-1.685-.425 2.115 2.115 0 0 0-2.369 2.013c0 .823.582 1.5 1.815 1.944.924.341 1.277.667 1.277 1.263 0 .568-.426 1.021-1.334 1.021a3.282 3.282 0 0 1-1.645-.5zm-4.154.325h1.233v-3.66a3.552 3.552 0 0 1 .055-.581 1.754 1.754 0 0 1 1.676-1.6 1.913 1.913 0 0 1 .426.042v-1.178a1.336 1.336 0 0 0-.356-.043 2.056 2.056 0 0 0-1.9 1.5h-.057l-.044-1.344h-1.09c.041.639.057 1.333.057 2.143v4.721zm-6.4-4.1a2.072 2.072 0 0 1 1.916-2.03 1.777 1.777 0 0 1 1.73 2.03zm4.809.891a4.323 4.323 0 0 0 .043-.58c0-1.263-.594-3.233-2.836-3.233-2 0-3.219 1.63-3.219 3.7a3.187 3.187 0 0 0 3.375 3.462 5.563 5.563 0 0 0 2.283-.426l-.211-.893a4.524 4.524 0 0 1-1.9.354 2.2 2.2 0 0 1-2.355-2.385h4.822zm-13.048-3.655l2.609 6.864h1.19l2.694-6.864h-1.305l-1.332 3.858a22.686 22.686 0 0 0-.582 1.76h-.042a17.7 17.7 0 0 0-.553-1.759l-1.347-3.859zm-1.846-2.709a.76.76 0 0 0-.778.779.772.772 0 1 0 .778-.779m.623 2.709h-1.246v6.864h1.241zm-9.117 6.864h1.246v-4.128a1.83 1.83 0 0 1 1.76-1.858c1.178 0 1.589.923 1.589 2.028v3.958h1.247v-4.1c0-2.354-1.475-2.921-2.425-2.921a2.525 2.525 0 0 0-2.271 1.288h-.027l-.071-1.134h-1.1c.041.567.057 1.149.057 1.858v5.007zm-9.149-9.558v5.632c0 2.964 1.474 4.083 3.433 4.083 2.07 0 3.615-1.2 3.615-4.14v-5.575h-1.247v5.66c0 2.112-.908 3.05-2.328 3.05-1.276 0-2.228-.908-2.228-3.05v-5.66zM140.437 41.71h3v-6.923a3 3 0 0 1 .121-.969 2.493 2.493 0 0 1 2.322-1.742c1.621 0 2.25 1.282 2.25 2.976v6.658h2.98v-7c0-3.728-2.133-5.059-4.189-5.059a4.249 4.249 0 0 0-3.752 2.033h-.072l-.146-1.767h-2.614c.072 1.017.1 2.154.1 3.51v8.283zm-10.385-7.141a2.913 2.913 0 0 1 2.736-2.88c1.984 0 2.469 1.791 2.445 2.88h-5.181zm7.885 2.082a7.494 7.494 0 0 0 .1-1.259c0-2.59-1.258-5.736-5.082-5.736-3.777 0-5.762 3.074-5.762 6.342 0 3.606 2.252 5.955 6.076 5.955a11.1 11.1 0 0 0 4.113-.726l-.436-2.058a8.846 8.846 0 0 1-3.266.533c-1.889 0-3.558-.921-3.633-3.051h7.89zm-16.17-.1a5.029 5.029 0 0 1-.121 1.065 2.541 2.541 0 0 1-2.42 1.791c-1.863 0-2.879-1.621-2.879-3.631 0-2.4 1.232-3.849 2.9-3.849a2.473 2.473 0 0 1 2.422 1.912 2.917 2.917 0 0 1 .1.8zm.484-6.632l-.121 1.573h-.049a3.708 3.708 0 0 0-3.412-1.84c-2.83 0-5.348 2.349-5.348 6.221 0 3.341 2.082 5.761 5.01 5.761a3.98 3.98 0 0 0 3.436-1.742h.049v1.018c0 2.542-1.451 3.558-3.389 3.558a7.1 7.1 0 0 1-3.435-.9l-.652 2.252a8.331 8.331 0 0 0 4.113.943 6.779 6.779 0 0 0 4.549-1.428c1.234-1.114 1.744-2.881 1.744-5.35V33.31c0-1.622.047-2.59.1-3.389h-2.591zM100.237 41.71h3v-6.923a3 3 0 0 1 .121-.969 2.5 2.5 0 0 1 2.322-1.742c1.623 0 2.252 1.282 2.252 2.976v6.658h2.975v-7c0-3.728-2.131-5.059-4.187-5.059a4.252 4.252 0 0 0-3.752 2.033h-.072l-.145-1.767h-2.614c.074 1.017.1 2.154.1 3.51v8.283zm-4.7-16.7a1.59 1.59 0 0 0-1.67 1.622 1.671 1.671 0 0 0 3.339 0 1.589 1.589 0 0 0-1.669-1.622m1.5 4.914h-3V41.71h3zm-14.184 5.01a3.563 3.563 0 0 1 .1-.773 2.79 2.79 0 0 1 2.64-2.18c1.984 0 2.977 1.695 2.977 3.776 0 2.373-1.137 3.873-3 3.873a2.747 2.747 0 0 1-2.638-2.081 3.25 3.25 0 0 1-.073-.7v-1.917zm-.531 6.776l.146-1.767h.048a4.056 4.056 0 0 0 3.727 2.033c2.662 0 5.35-2.106 5.35-6.342.023-3.582-2.033-5.979-4.914-5.979a4.261 4.261 0 0 0-3.775 1.889h-.049v-7.021h-2.978v13.87c0 1.21-.049 2.518-.1 3.316h2.543zm-8.447-13.628a1.446 1.446 0 0 0 1.451-1.472 1.424 1.424 0 0 0-1.451-1.5 1.489 1.489 0 0 0 0 2.977m-4.817 0a1.489 1.489 0 0 0 .024-2.977 1.489 1.489 0 1 0-.024 2.977m7.6 1.84h-2.977v7.116a2.706 2.706 0 0 1-.169.92 2.509 2.509 0 0 1-2.275 1.6c-1.572 0-2.2-1.259-2.2-3.22v-6.421h-2.98v6.923c0 3.848 1.961 5.131 4.115 5.131a4.261 4.261 0 0 0 3.775-2.057h.049l.141 1.791h2.613c-.047-.968-.1-2.13-.1-3.534v-8.254zM57.852 41.71h2.976V27.889h4.7v-2.494H53.206v2.494h4.646zM35.711 53.316c-3.416 0-4.457-2.006-4.457-6.389V11.81h-4.481s-1.174 8.229-5.192 11.519a9.967 9.967 0 0 1-5.644 2.55v5.7h4.828v14.857c0 5.125 1.038 8.154 3.118 10.309a10.335 10.335 0 0 0 7.893 3.121 22.1 22.1 0 0 0 7.354-.967l-.076-5.883a18.159 18.159 0 0 1-3.343.3"/><path fill="#379441" d="M34.272 25.386h6.194v6.193h-6.194z"/></svg>
