<?xml version="1.0" encoding="UTF-8"?>
<svg id="uuid-623355f1-5d95-4caa-9855-fbb69cbe3b6c" data-name="Ebene 1" xmlns="http://www.w3.org/2000/svg" width="300" height="300" viewBox="0 0 300 300">
  <defs>
    <style>
      .uuid-a0dfce37-587a-40bf-ba18-01403d9be7ec {
        fill: #e49d3a;
      }

      .uuid-c94d2087-c4b3-43e0-977e-6d249a7f211e {
        fill: #9747ff;
      }
    </style>
  </defs>
  <path class="uuid-c94d2087-c4b3-43e0-977e-6d249a7f211e" d="m195.31,283.05c-1.02,0-1.98-.63-2.35-1.65-.47-1.3.2-2.73,1.5-3.2,51.58-18.66,86.23-68.06,86.23-122.93,0-72.07-58.63-130.69-130.69-130.69S19.31,83.2,19.31,155.27c0,54.68,34.5,104.03,85.84,122.79,1.3.47,1.96,1.91,1.49,3.21-.47,1.3-1.91,1.96-3.21,1.49-53.3-19.48-89.12-70.71-89.12-127.49C14.31,80.45,75.18,19.57,150,19.57s135.69,60.87,135.69,135.69c0,56.97-35.98,108.26-89.53,127.63-.28.1-.57.15-.85.15Z"/>
  <path class="uuid-a0dfce37-587a-40bf-ba18-01403d9be7ec" d="m195.31,283.05c-1.02,0-1.98-.63-2.35-1.65l-26.72-73.41c-1.13-3.12.35-6.6,3.38-7.93,17.79-7.8,29.28-25.39,29.28-44.8,0-13.5-5.38-26.06-15.15-35.38-9.76-9.32-22.59-14.09-36.11-13.46-24.91,1.17-45.33,21.59-46.49,46.51-.94,20.28,10.4,38.73,28.9,47,2.98,1.33,4.43,4.8,3.3,7.9l-26.73,73.43c-.47,1.3-1.91,1.97-3.21,1.49-1.3-.47-1.97-1.91-1.49-3.21l26.73-73.43c.24-.65-.05-1.36-.65-1.63-20.39-9.12-32.9-29.45-31.86-51.8,1.28-27.46,23.79-49.98,51.25-51.27,14.9-.7,29.04,4.57,39.79,14.84,10.77,10.27,16.69,24.12,16.69,39,0,21.4-12.67,40.78-32.27,49.38-.62.27-.92,1-.68,1.64l26.72,73.41c.47,1.3-.2,2.73-1.49,3.21-.28.1-.57.15-.86.15Z"/>
</svg>