<?xml version="1.0" encoding="UTF-8"?>
<svg id="uuid-8c96a4d1-8b61-44e6-9d34-64ad1a749afb" data-name="Ebene 1" xmlns="http://www.w3.org/2000/svg" width="500" height="500" viewBox="0 0 500 500">
  <defs>
    <style>
      .uuid-5a6539d2-d0c1-49d5-bdc0-375f74ee4b9a {
        fill: #e49d3a;
      }

      .uuid-f46bbcd9-0d5a-4341-a6ab-4c9237ac48b3 {
        fill: #9747ff;
      }
    </style>
  </defs>
  <path class="uuid-5a6539d2-d0c1-49d5-bdc0-375f74ee4b9a" d="m468.4,259.44h-8.71v-7.58h8.71c1.38,0,2.5-1.12,2.5-2.5s-1.12-2.5-2.5-2.5h-8.71v-5.2c0-1.38-1.12-2.5-2.5-2.5s-2.5,1.12-2.5,2.5v5.2h-25.11v-5.2c0-1.38-1.12-2.5-2.5-2.5s-2.5,1.12-2.5,2.5v5.2h-11.33c-1.38,0-2.5,1.12-2.5,2.5s1.12,2.5,2.5,2.5h11.33v7.58h-11.33c-1.38,0-2.5,1.12-2.5,2.5s1.12,2.5,2.5,2.5h11.33v14.44c0,1.38,1.12,2.5,2.5,2.5s2.5-1.12,2.5-2.5v-14.44h25.11v17.95c0,1.38,1.12,2.5,2.5,2.5s2.5-1.12,2.5-2.5v-17.95h8.71c1.38,0,2.5-1.12,2.5-2.5s-1.12-2.5-2.5-2.5Zm-38.82,0v-7.58h25.11v7.58h-25.11Z"/>
  <path class="uuid-5a6539d2-d0c1-49d5-bdc0-375f74ee4b9a" d="m89.94,259.44h-12.85v-7.58h12.85c1.38,0,2.25-1.12,2.25-2.5s-.87-2.5-2.25-2.5h-12.85v-5.2c0-1.38-1.12-2.5-2.5-2.5s-2.5,1.12-2.5,2.5v5.2h-25.11v-5.2c0-1.38-1.12-2.5-2.5-2.5s-2.5,1.12-2.5,2.5v5.2h-8.71c-1.38,0-2.5,1.12-2.5,2.5s1.12,2.5,2.5,2.5h8.71v7.58h-8.71c-1.38,0-2.5,1.12-2.5,2.5s1.12,2.5,2.5,2.5h8.71v17.95c0,1.38,1.12,2.5,2.5,2.5s2.5-1.12,2.5-2.5v-17.95h25.11v9.8c0,1.38,1.12,2.5,2.5,2.5s2.5-1.12,2.5-2.5v-9.8h12.85c1.38,0,2.16-1.12,2.16-2.5s-.78-2.5-2.16-2.5Zm-42.96,0v-7.58h25.11v7.58h-25.11Z"/>
  <g>
    <rect class="uuid-f46bbcd9-0d5a-4341-a6ab-4c9237ac48b3" x="363.13" y="337.38" width="32.61" height="5"/>
    <path class="uuid-f46bbcd9-0d5a-4341-a6ab-4c9237ac48b3" d="m408.32,156.34H94.87c-4.1,0-7.43,3.33-7.43,7.43v111.23h5v-111.23c0-1.34,1.09-2.43,2.43-2.43h313.46c1.34,0,2.43,1.09,2.43,2.43v121.11h5v-121.11c0-4.1-3.33-7.43-7.43-7.43Z"/>
    <path class="uuid-f46bbcd9-0d5a-4341-a6ab-4c9237ac48b3" d="m374.68,278.93c4.1,0,7.43-3.33,7.43-7.43v-51.03c0-4.1-3.33-7.43-7.43-7.43h-72.42c-4.1,0-7.43,3.33-7.43,7.43v51.03c0,4.1,3.33,7.43,7.43,7.43h72.42Zm-74.85-7.43v-51.03c0-1.34,1.09-2.43,2.43-2.43h72.42c1.34,0,2.43,1.09,2.43,2.43v51.03c0,1.34-1.09,2.43-2.43,2.43h-72.42c-1.34,0-2.43-1.09-2.43-2.43Z"/>
    <path class="uuid-f46bbcd9-0d5a-4341-a6ab-4c9237ac48b3" d="m179.54,278.93c4.1,0,7.43-3.33,7.43-7.43v-51.03c0-4.1-3.33-7.43-7.43-7.43h-51.03c-4.1,0-7.43,3.33-7.43,7.43v51.03c0,4.1,3.33,7.43,7.43,7.43h51.03Zm-53.46-7.43v-51.03c0-1.34,1.09-2.43,2.43-2.43h51.03c1.34,0,2.43,1.09,2.43,2.43v51.03c0,1.34-1.09,2.43-2.43,2.43h-51.03c-1.34,0-2.43-1.09-2.43-2.43Z"/>
    <path class="uuid-f46bbcd9-0d5a-4341-a6ab-4c9237ac48b3" d="m270.59,256.58c0-4.1-3.33-7.43-7.43-7.43h-47.77c-4.1,0-7.43,3.33-7.43,7.43v80.8h-106.82v5h207.22v-5h-37.77v-80.8Zm-57.63,0c0-1.34,1.09-2.43,2.43-2.43h47.77c1.34,0,2.43,1.09,2.43,2.43v80.8h-52.63v-80.8Z"/>
  </g>
  <path class="uuid-5a6539d2-d0c1-49d5-bdc0-375f74ee4b9a" d="m54.37,352.91c-8.47,0-16.33-4.21-21.04-11.26-4.81-7.21-5.56-16.19-2.06-24.62,2.27-5.47,6.72-9.97,12.2-12.34,4.51-1.96,9.11-2.69,13.69-2.17-1.45-5.63-.91-11.59,1.57-17.29,2.34-5.38,6.79-9.78,12.2-12.05,8.45-3.55,17.45-2.83,24.69,1.99,7.08,4.7,11.3,12.58,11.3,21.06,0,5.62-1.81,10.94-5.24,15.39-.14.18-.13.46.02.65,5.72,7.45,6.79,17.32,2.85,26.39-2.31,5.34-6.73,9.71-12.12,11.99-8.15,3.45-16.92,2.91-24.05-1.49-.24-.15-.52-.15-.77,0-3.98,2.45-8.56,3.75-13.25,3.75Zm-.02-45.55c-2.96,0-5.94.64-8.88,1.92-4.31,1.87-7.8,5.39-9.58,9.67-2.85,6.86-2.27,14.13,1.6,19.93,3.78,5.66,10.09,9.04,16.88,9.04,3.77,0,7.44-1.04,10.63-3,1.86-1.15,4.16-1.15,6.02,0,5.74,3.54,12.84,3.96,19.48,1.14,4.22-1.79,7.67-5.2,9.48-9.37,3.25-7.5,2.44-15.28-2.23-21.36-1.53-2-1.54-4.77-.02-6.75,2.75-3.57,4.2-7.84,4.2-12.34,0-6.81-3.39-13.13-9.07-16.9-5.82-3.87-13.1-4.43-19.98-1.54-4.24,1.78-7.72,5.22-9.55,9.43-2.14,4.91-2.52,10.01-1.12,14.76.43,1.46.1,3.02-.9,4.17-.98,1.12-2.42,1.67-3.9,1.44-1.01-.15-2.03-.23-3.05-.23Z"/>
  <path class="uuid-5a6539d2-d0c1-49d5-bdc0-375f74ee4b9a" d="m436.46,353.06c-3.49,0-6.88-.71-10.09-2.12-.81-.35-1.73-.35-2.54,0-3.83,1.68-7.9,2.36-12.11,2.04-12.66-.98-22.89-11.7-23.27-24.41-.25-8.33,3.61-16.25,10.33-21.18.98-.72,1.53-1.78,1.48-2.84-.02-.4-.03-.8-.03-1.21,0-7.13,3.04-13.97,8.33-18.76,5.37-4.85,12.32-7.12,19.57-6.38,11.3,1.15,20.71,10.13,22.37,21.37.26,1.77.34,3.56.23,5.33h0c-.07,1.18.4,2.26,1.31,2.96,6.42,5.02,10.05,12.89,9.7,21.04-.55,12.75-10.55,23.1-23.26,24.08-.68.05-1.35.08-2.02.08Zm-10.97-69.99c-5.04,0-9.79,1.82-13.57,5.23-4.25,3.84-6.69,9.33-6.69,15.05,0,.32,0,.65.02.97.13,2.74-1.18,5.4-3.51,7.11-5.4,3.96-8.5,10.31-8.29,16.99.31,10.2,8.51,18.8,18.66,19.58,3.38.26,6.65-.29,9.72-1.63,2.08-.91,4.47-.91,6.55,0,3.07,1.34,6.34,1.89,9.72,1.63,10.02-.77,18.21-9.25,18.65-19.31.28-6.54-2.62-12.85-7.78-16.88-2.19-1.71-3.39-4.41-3.22-7.21.09-1.42.02-2.87-.19-4.29-1.33-9-8.87-16.21-17.92-17.12-.72-.07-1.44-.11-2.15-.11Z"/>
  <path class="uuid-5a6539d2-d0c1-49d5-bdc0-375f74ee4b9a" d="m400.06,397.37l-53.04-93.15v-10.15c0-3.61-2.93-6.54-6.54-6.54h-5.15c-3.61,0-6.54,2.93-6.54,6.54v8.31h-5.63v-8.31c0-3.61-2.93-6.54-6.54-6.54h-5.15c-3.61,0-6.54,2.93-6.54,6.54v17.52s0,0,0,0v74.7s0,0,0,0,0,0,0,0v15.34c0,1.38,1.12,2.5,2.5,2.5s2.5-1.12,2.5-2.5v-12.85h32.09v12.85c0,1.38,1.12,2.5,2.5,2.5s2.5-1.12,2.5-2.5v-22.2l13.12,23.04c.98,1.72,2.85,2.78,4.89,2.78h30.14c2.02,0,3.89-1.05,4.87-2.75.94-1.62.95-3.55.02-5.18Zm-66.28-103.3c0-.85.69-1.54,1.54-1.54h5.15c.85,0,1.54.69,1.54,1.54v8.31h-8.23v-8.31Zm-22.32-1.54h5.15c.85,0,1.54.69,1.54,1.54v8.31h-8.23v-1.57s0,0,0,0v-6.73c0-.85.69-1.54,1.54-1.54Zm-1.54,42h11.5l12.61,22.14h-24.11v-22.14Zm0-5v-15.2l8.65,15.2h-8.65Zm32.09,54.29h-32.09v-22.14h26.96l5.14,9.02v13.12Zm53.7,16.22c-.04.06-.18.26-.55.26h-30.14c-.28,0-.48-.13-.55-.26l-52.76-92.65h31.34l52.65,92.46c.03.06.05.1,0,.19Z"/>
</svg>