<?xml version="1.0" encoding="UTF-8"?>
<svg id="uuid-6c69b4b1-9bf2-45a6-97d8-90df8dc4920c" data-name="Ebene 1" xmlns="http://www.w3.org/2000/svg" width="500" height="500" viewBox="0 0 500 500">
  <defs>
    <style>
      .uuid-459c59da-c962-4a35-bb07-d4fe6ece7239 {
        fill: #e49d3a;
      }

      .uuid-fa43c7fd-9848-4a2f-88a0-601367e36b1e {
        fill: #9747ff;
      }
    </style>
  </defs>
  <path class="uuid-459c59da-c962-4a35-bb07-d4fe6ece7239" d="m430.25,227.28c5.35-7.14,8.18-15.65,8.18-24.58,0-12.21-5.39-23.71-14.79-31.55-.84-.7-1.24-1.8-1.03-2.88.74-3.77.94-7.63.61-11.47-1.78-20.51-19.3-36.97-39.89-37.47-6.6-.16-12.97,1.21-18.88,4.08-.9.44-1.94.44-2.83,0-6.48-3.14-13.73-4.52-20.98-3.98-20.12,1.49-36.39,17.8-37.85,37.94-.36,4.93.16,9.8,1.53,14.5.37,1.28-.08,2.63-1.14,3.45-2.41,1.84-4.71,3.85-6.84,5.98l3.54,3.53c1.97-1.97,4.1-3.84,6.33-5.54,2.73-2.08,3.87-5.54,2.92-8.83-1.2-4.12-1.65-8.41-1.34-12.74,1.28-17.68,15.56-32,33.23-33.31,6.37-.47,12.74.73,18.43,3.49,2.28,1.11,4.91,1.11,7.19,0,5.19-2.52,10.78-3.71,16.58-3.58,18.08.44,33.46,14.89,35.03,32.9.29,3.38.11,6.77-.54,10.07-.56,2.87.48,5.81,2.73,7.68,8.26,6.88,12.99,16.98,12.99,27.71,0,7.85-2.48,15.31-7.18,21.58-2.19,2.92-2.18,6.86.02,9.81,5.22,6.98,7.73,15.65,7.06,24.4-1.34,17.53-15.57,31.77-33.11,33.12-8.15.62-16.03-1.42-22.79-5.91-2.36-1.57-5.27-1.81-7.79-.65-8.88,4.09-18.37,5.97-28.2,5.62-3.94-.14-7.88-.67-11.71-1.56l-1.14,4.87c4.14.97,8.4,1.54,12.66,1.69,1.5.05,2.98.06,4.46.01v81.24c0,3.87,3.15,7.01,7.01,7.01h9.69c3.87,0,7.01-3.15,7.01-7.01v-86.33c.77-.32,1.54-.65,2.3-1,.93-.43,2.03-.33,2.93.27,6.78,4.51,14.56,6.86,22.67,6.86,1.08,0,2.17-.04,3.27-.13,19.97-1.53,36.18-17.75,37.71-37.72.76-9.96-2.09-19.83-8.04-27.78-.86-1.15-.87-2.68-.02-3.81Zm-65.82,149.64c0,1.11-.9,2.01-2.01,2.01h-9.69c-1.11,0-2.01-.9-2.01-2.01v-81.57c4.67-.48,9.25-1.45,13.71-2.9v84.47Z"/>
  <path class="uuid-fa43c7fd-9848-4a2f-88a0-601367e36b1e" d="m339.71,210.96l-46.15-34.4v-55.33c0-2.62-2.13-4.75-4.75-4.75h-18.07c-2.62,0-4.75,2.13-4.75,4.75v34.78l-61.48-45.82c-1.68-1.25-4.04-1.25-5.72,0L63.59,210.96c-1.68,1.25-2.34,3.35-1.68,5.34.66,1.99,2.44,3.28,4.54,3.28h270.4c2.1,0,3.88-1.29,4.54-3.28s0-4.09-1.68-5.35Zm-68.72-89.47h17.57v51.35l-17.57-13.1v-38.25Zm-203.9,93.1l134.56-100.29,134.56,100.29H67.09Z"/>
  <path class="uuid-fa43c7fd-9848-4a2f-88a0-601367e36b1e" d="m71.04,214.59v168.47c0,4.25,3.45,7.7,7.7,7.7h245.82c4.24,0,7.7-3.45,7.7-7.7v-168.47H71.04Zm157.87,171.17h-51.66v-81.56c0-.92.75-1.67,1.67-1.67h48.32c.92,0,1.67.75,1.67,1.67v81.56Zm98.35-2.7c0,1.49-1.21,2.7-2.7,2.7h-90.65v-81.56c0-3.68-2.99-6.67-6.67-6.67h-48.32c-3.68,0-6.67,2.99-6.67,6.67v81.56h-93.51c-1.49,0-2.7-1.21-2.7-2.7v-163.47h251.22v163.47Z"/>
  <path class="uuid-fa43c7fd-9848-4a2f-88a0-601367e36b1e" d="m143.22,305.35h-36.8c-3.68,0-6.67-2.99-6.67-6.67v-36.8c0-3.68,2.99-6.67,6.67-6.67h36.8c3.68,0,6.67,2.99,6.67,6.67v36.8c0,3.68-2.99,6.67-6.67,6.67Zm-36.8-45.14c-.92,0-1.67.75-1.67,1.67v36.8c0,.92.75,1.67,1.67,1.67h36.8c.92,0,1.67-.75,1.67-1.67v-36.8c0-.92-.75-1.67-1.67-1.67h-36.8Z"/>
  <path class="uuid-fa43c7fd-9848-4a2f-88a0-601367e36b1e" d="m295.04,305.35h-36.8c-3.68,0-6.67-2.99-6.67-6.67v-36.8c0-3.68,2.99-6.67,6.67-6.67h36.8c3.68,0,6.67,2.99,6.67,6.67v36.8c0,3.68-2.99,6.67-6.67,6.67Zm-36.8-45.14c-.92,0-1.67.75-1.67,1.67v36.8c0,.92.75,1.67,1.67,1.67h36.8c.92,0,1.67-.75,1.67-1.67v-36.8c0-.92-.75-1.67-1.67-1.67h-36.8Z"/>
</svg>