<?xml version="1.0" encoding="UTF-8"?>
<svg id="uuid-375d9c27-af61-420a-9b34-1784ec4e8eed" data-name="Ebene 1" xmlns="http://www.w3.org/2000/svg" width="300" height="300" viewBox="0 0 300 300">
  <defs>
    <style>
      .uuid-94a38885-2583-44b7-8635-45aee00e2834 {
        fill: #e49d3a;
      }

      .uuid-1bfa3e37-c175-46ff-9b0e-7c11cf9de0f0 {
        fill: #9747ff;
      }
    </style>
  </defs>
  <path class="uuid-1bfa3e37-c175-46ff-9b0e-7c11cf9de0f0" d="m244.98,227.08l-3.7-3.36c12.24-13.5,21.99-28.28,28.98-43.97-6.31-4.86-43.55-33.94-76.52-67.19-33.24-32.95-62.31-70.19-67.18-76.5-15.69,7-30.48,16.74-43.97,28.99l-3.36-3.7c14.38-13.05,30.2-23.35,47.02-30.61l1.56-.67,2.02,2.05c.31.41,31.42,41.21,67.44,76.92,35.73,36.04,76.52,67.15,76.93,67.46l.25.22,1.79,1.79-.67,1.56c-7.26,16.82-17.56,32.64-30.61,47.03Z"/>
  <path class="uuid-1bfa3e37-c175-46ff-9b0e-7c11cf9de0f0" d="m183.63,271.13l-2.01-2.05c-.31-.41-31.42-41.21-67.44-76.92-35.73-36.04-76.52-67.15-76.93-67.46l-.25-.22-1.79-1.79.67-1.56c7.26-16.82,17.56-32.64,30.61-47.02l3.7,3.36c-12.24,13.5-21.99,28.28-28.99,43.97,6.3,4.86,43.55,33.94,76.52,67.19,33.24,32.95,62.31,70.19,67.18,76.5,15.69-7,30.47-16.74,43.97-28.98l3.36,3.7c-14.38,13.05-30.21,23.35-47.03,30.61l-1.56.67Z"/>
  <path class="uuid-94a38885-2583-44b7-8635-45aee00e2834" d="m100.51,108.62c-1.86,0-3.61-.73-4.93-2.04l-33.62-33.62c-.62-.62-1.63-.62-2.25,0l-10.68,10.68c-1.41,1.42-3.41,1.95-5.34,1.43-1.93-.52-3.39-1.98-3.91-3.91l-14.55-54.29c-.52-1.93.02-3.93,1.43-5.34,1.42-1.42,3.42-1.95,5.34-1.43l54.29,14.55c1.93.52,3.39,1.98,3.91,3.91.52,1.93-.02,3.93-1.43,5.34l-10.68,10.68c-.62.62-.62,1.63,0,2.25l33.62,33.62c1.32,1.32,2.04,3.07,2.04,4.93s-.73,3.61-2.04,4.93l-6.27,6.27c-1.32,1.32-3.07,2.04-4.93,2.04Zm-39.67-41.12c1.69,0,3.38.64,4.66,1.93l33.62,33.62c.75.75,2.04.75,2.79,0l6.27-6.27c.37-.37.58-.87.58-1.39s-.21-1.02-.58-1.39l-33.62-33.62c-2.57-2.57-2.57-6.75,0-9.33l10.68-10.68c.18-.18.17-.38.14-.51-.04-.13-.13-.31-.38-.38h0l-54.29-14.55c-.24-.07-.42.04-.51.14-.1.1-.2.27-.14.51l14.55,54.29c.07.25.24.34.38.38.13.04.33.04.51-.14l10.68-10.68c1.29-1.29,2.97-1.93,4.66-1.93Z"/>
  <path class="uuid-94a38885-2583-44b7-8635-45aee00e2834" d="m280.6,280.99c-.48,0-.97-.06-1.46-.19l-54.3-14.55c-1.93-.52-3.39-1.98-3.91-3.91-.52-1.93.02-3.93,1.43-5.34l10.68-10.68c.62-.62.62-1.63,0-2.25l-33.62-33.62c-1.32-1.32-2.04-3.07-2.04-4.93s.73-3.61,2.04-4.93l6.27-6.27c1.32-1.32,3.07-2.04,4.93-2.04s3.61.73,4.93,2.04l33.62,33.62c.62.62,1.63.62,2.25,0l10.68-10.68c1.41-1.41,3.42-1.95,5.34-1.43,1.93.52,3.39,1.98,3.91,3.91l14.55,54.29c.52,1.93-.02,3.93-1.43,5.34-1.06,1.06-2.45,1.62-3.89,1.62Zm-69.96-83.72c-.53,0-1.02.21-1.39.58l-6.27,6.27c-.37.37-.58.87-.58,1.39s.21,1.02.58,1.39l33.62,33.62c2.57,2.57,2.57,6.75,0,9.32l-10.68,10.68c-.18.18-.17.38-.14.51s.13.31.38.38h0l54.3,14.55c.24.07.41-.04.51-.14.1-.1.2-.27.14-.51l-14.55-54.29c-.07-.25-.24-.34-.38-.38-.14-.04-.33-.04-.51.14l-10.68,10.68c-2.57,2.57-6.75,2.57-9.33,0l-33.62-33.62c-.37-.37-.87-.58-1.39-.58Z"/>
</svg>