<?xml version="1.0" encoding="UTF-8"?>
<svg id="uuid-eaca6fda-c40b-4438-9ae6-d76cc1401a69" data-name="Ebene 1" xmlns="http://www.w3.org/2000/svg" width="300" height="300" viewBox="0 0 300 300">
  <defs>
    <style>
      .uuid-2b51e9be-0022-446c-b09d-fa61fef2e0ee {
        fill: #e49d3a;
      }

      .uuid-cede0dcb-05c5-460e-9101-cee543ac878a {
        fill: #9747ff;
      }
    </style>
  </defs>
  <g>
    <path class="uuid-cede0dcb-05c5-460e-9101-cee543ac878a" d="m172.91,159.97l25.8,25.81,3.54-3.54-26.21-26.21c24.74-33.17,22.09-80.44-7.98-110.51-33.02-33.02-86.78-32.98-119.84.08s-33.1,86.82-.08,119.84c16.5,16.5,38.17,24.74,59.85,24.74,17.84,0,35.69-5.6,50.67-16.77l26.21,26.21,3.54-3.54-25.8-25.81c1.85-1.56,3.65-3.18,5.39-4.92s3.36-3.54,4.92-5.39Zm-121.22,1.94c-31.07-31.07-31.03-81.66.08-112.77,15.57-15.57,36.02-23.36,56.46-23.36s40.79,7.76,56.31,23.28c31.07,31.07,31.03,81.66-.08,112.77s-81.7,31.15-112.77.08Z"/>
    <path class="uuid-cede0dcb-05c5-460e-9101-cee543ac878a" d="m154.21,59.38c-25.39-25.39-66.73-25.36-92.15.06-25.42,25.42-25.45,66.76-.06,92.15,12.29,12.29,28.63,19.05,46.02,19.05h.04c17.4-.01,33.77-6.8,46.08-19.11,25.42-25.42,25.45-66.76.06-92.15Zm-3.6,88.61c-11.37,11.37-26.48,17.64-42.55,17.65h-.04c-16.05,0-31.14-6.25-42.48-17.59-23.44-23.44-23.41-61.6.06-85.08,11.75-11.75,27.17-17.62,42.59-17.62s30.78,5.85,42.48,17.56c23.44,23.44,23.41,61.6-.06,85.08Z"/>
  </g>
  <path class="uuid-2b51e9be-0022-446c-b09d-fa61fef2e0ee" d="m265.24,281.58c-4.45,0-8.9-1.69-12.28-5.08l-63.61-63.61c-6.77-6.77-6.77-17.79,0-24.57l1.6-1.6c6.77-6.77,17.79-6.77,24.57,0l63.61,63.61c6.77,6.77,6.77,17.79,0,24.56l-1.6,1.6c-3.39,3.39-7.83,5.08-12.28,5.08Zm-62.01-94.94c-3.17,0-6.34,1.21-8.75,3.62l-1.6,1.6c-4.82,4.82-4.82,12.67,0,17.5l63.61,63.61c4.83,4.82,12.67,4.82,17.5,0l1.6-1.6c4.82-4.82,4.82-12.67,0-17.49l-63.61-63.61c-2.41-2.41-5.58-3.62-8.75-3.62Z"/>
</svg>