<?xml version="1.0" encoding="UTF-8"?>
<svg id="uuid-44385754-6d4b-4bd6-a643-8b0c5ea91cad" data-name="Ebene 2" xmlns="http://www.w3.org/2000/svg" width="300" height="300" viewBox="0 0 300 300">
  <defs>
    <style>
      .uuid-cdda21c7-8edf-4745-8f53-3c679e9825f2 {
        fill: #e49d3a;
      }

      .uuid-947ea2b8-0418-40bc-b4cf-07fc03726827 {
        fill: #9747ff;
      }
    </style>
  </defs>
  <g>
    <path class="uuid-cdda21c7-8edf-4745-8f53-3c679e9825f2" d="m110.52,109.97c-.64,0-1.27-.24-1.76-.73l-41.88-41.63c-.98-.97-.98-2.56-.01-3.54.98-.98,2.56-.98,3.54-.01l41.88,41.63c.98.97.98,2.56.01,3.54-.49.49-1.13.74-1.77.74Z"/>
    <path class="uuid-cdda21c7-8edf-4745-8f53-3c679e9825f2" d="m134.3,66.11c-1.13,0-2.16-.77-2.43-1.92l-13.63-57c-.32-1.34.51-2.69,1.85-3.01,1.35-.32,2.69.51,3.01,1.85l13.63,57c.32,1.34-.51,2.69-1.85,3.01-.2.05-.39.07-.58.07Z"/>
    <path class="uuid-cdda21c7-8edf-4745-8f53-3c679e9825f2" d="m188.84,91.14c-1.38,0-2.5-1.12-2.5-2.5V28.42c0-1.38,1.12-2.5,2.5-2.5s2.5,1.12,2.5,2.5v60.22c0,1.38-1.12,2.5-2.5,2.5Z"/>
    <path class="uuid-cdda21c7-8edf-4745-8f53-3c679e9825f2" d="m99.66,52.54c-4.66,0-8.45-3.79-8.45-8.45s3.79-8.45,8.45-8.45,8.45,3.79,8.45,8.45-3.79,8.45-8.45,8.45Zm0-11.89c-1.9,0-3.45,1.55-3.45,3.45s1.55,3.45,3.45,3.45,3.45-1.55,3.45-3.45-1.55-3.45-3.45-3.45Z"/>
    <path class="uuid-cdda21c7-8edf-4745-8f53-3c679e9825f2" d="m161.57,47.81c-5.33,0-9.67-4.34-9.67-9.67s4.34-9.67,9.67-9.67,9.67,4.34,9.67,9.67-4.34,9.67-9.67,9.67Zm0-14.34c-2.57,0-4.67,2.09-4.67,4.67s2.09,4.67,4.67,4.67,4.67-2.09,4.67-4.67-2.09-4.67-4.67-4.67Z"/>
    <path class="uuid-cdda21c7-8edf-4745-8f53-3c679e9825f2" d="m148.87,114.07c-7.29,0-13.23-5.93-13.23-13.23s5.94-13.23,13.23-13.23,13.23,5.94,13.23,13.23-5.94,13.23-13.23,13.23Zm0-21.46c-4.54,0-8.23,3.69-8.23,8.23s3.69,8.23,8.23,8.23,8.23-3.69,8.23-8.23-3.69-8.23-8.23-8.23Z"/>
  </g>
  <path class="uuid-947ea2b8-0418-40bc-b4cf-07fc03726827" d="m243.74,206.79c-3.27-3.12-7.56-4.77-12.07-4.66-.33,0-.65.04-.97.07,1.01-2.19,1.57-4.59,1.57-7.08,0-4.52-1.76-8.76-4.95-11.95s-7.44-4.95-11.95-4.95c-.24,0-.48.02-.72.03,1.36-2.47,2.09-5.25,2.09-8.14,0-4.52-1.76-8.76-4.95-11.95s-7.44-4.95-11.95-4.95c-.64,0-1.27.04-1.89.11l26.09-28.05c6.59-6.59,6.59-17.32,0-23.91s-17.32-6.59-23.85-.06l-72.12,67.43c-1.57,1.47-3.62,2.18-5.76,2.02-2.14-.17-4.05-1.19-5.38-2.88l-21.82-27.83c-3.75-4.5-9.48-6.72-15.33-5.93-7.4,1-13.47,7.1-14.42,14.51-.67,5.23,1.37,9.14,3.46,12.61l11.69,21.21c2.07,3.75,2.72,8.21,1.84,12.56-1.13,5.58-1.65,11.32-1.55,17.06.36,20.1,8.43,39.13,22.72,53.59,14.29,14.46,33.23,22.75,53.32,23.33.79.02,1.57.03,2.35.03.14,0,.29,0,.43,0,21.45-.12,42.17-9.79,56.85-26.53l27.48-31.45.26-.24.1-.1c6.43-6.75,6.17-17.47-.58-23.9Zm-11.95.34c3.21-.08,6.2,1.09,8.5,3.28,2.3,2.19,3.61,5.15,3.69,8.33.08,3.16-1.07,6.15-3.23,8.45l-10.78,10.05-.1.1c-2.19,2.3-5.15,3.61-8.33,3.69-3.22.07-6.2-1.09-8.5-3.28-4.74-4.51-4.93-12.03-.45-16.78l.81-.76c.63-.47,1.24-.98,1.81-1.55l5.85-5.6,2.3-2.14.1-.1c2.19-2.3,5.15-3.61,8.33-3.69Zm-8.01-20.43c4.64,4.64,4.64,12.2.04,16.8l-6.17,5.91-7.45,6.95c-4.65,3.32-11.16,2.91-15.33-1.26-4.64-4.64-4.64-12.2-.04-16.8l3.7-3.54c.06-.05.12-.1.17-.16l6.56-6.29,1.64-1.57.04-.04c2.32-2.32,5.37-3.48,8.42-3.48s6.1,1.16,8.42,3.48Zm-15.53-25.01c4.64,4.64,4.64,12.2.04,16.8l-5.5,5.27-7.81,7.48c-4.66,4.45-12.06,4.39-16.64-.18-4.64-4.64-4.64-12.2-.04-16.8l13.11-12.56c2.32-2.32,5.37-3.48,8.42-3.48s6.1,1.16,8.42,3.48Zm4.46,97.51c-13.74,15.66-33.1,24.71-53.12,24.83-.86,0-1.73,0-2.61-.03-16.34-.47-31.87-6.41-44.44-16.84,2.79.62,5.63.94,8.49.94,3.34,0,6.7-.42,10.01-1.28,10.29-2.66,18.93-9.16,24.33-18.32.7-1.19.31-2.72-.88-3.42-1.19-.7-2.72-.31-3.42.88-4.72,8-12.28,13.69-21.28,16.01-8.94,2.3-18.23,1.02-26.2-3.62-11.2-12.99-17.49-29.26-17.8-46.37-.1-5.38.39-10.76,1.45-15.98,1.12-5.51.28-11.19-2.36-15.97l-11.74-21.3c-2.17-3.59-3.26-6.17-2.83-9.48.67-5.21,4.93-9.5,10.13-10.2,4.12-.56,8.17,1,10.77,4.11l21.77,27.77c1.13,1.45,2.57,2.6,4.18,3.43.78,7.4-.79,14.71-4.57,21.17-.7,1.19-.3,2.72.89,3.42.4.23.83.34,1.26.34.86,0,1.69-.44,2.16-1.24,4.01-6.84,5.84-14.51,5.39-22.33,3.38.16,6.71-1.05,9.19-3.36l72.18-67.49c4.64-4.64,12.2-4.64,16.84,0,4.64,4.64,4.64,12.2-.06,16.9l-44.16,47.49-1.46,1.4c-6.59,6.59-6.59,17.32,0,23.91,3.3,3.3,7.62,4.94,11.95,4.94.41,0,.83-.03,1.24-.06-1.05,2.23-1.63,4.67-1.63,7.21,0,4.52,1.76,8.76,4.95,11.95s7.44,4.95,11.95,4.95c.69,0,1.38-.06,2.05-.14-2.17,6.1-.74,13.18,4.24,17.93,3.27,3.11,7.47,4.66,11.66,4.66,1.09,0,2.17-.11,3.24-.31l-11.78,13.48Z"/>
</svg>