<?xml version="1.0" encoding="UTF-8"?>
<svg id="uuid-0d1d39d8-c6b3-4190-95dc-7a8152e5f8ea" data-name="Ebene 1" xmlns="http://www.w3.org/2000/svg" width="300" height="300" viewBox="0 0 300 300">
  <defs>
    <style>
      .uuid-25d14dad-1ad3-475f-b178-143a5b2a6708 {
        fill: #e49d3a;
      }

      .uuid-b8cf5c67-abcb-4fb6-8548-fa996dd1d067 {
        fill: #9747ff;
      }
    </style>
  </defs>
  <path class="uuid-b8cf5c67-abcb-4fb6-8548-fa996dd1d067" d="m257.37,255.86h-95.11V83.46h-5v172.4h-14.52V83.46h-5v172.4H42.63c-6.76,0-12.26,5.5-12.26,12.26s5.5,12.26,12.26,12.26h214.74c6.76,0,12.26-5.5,12.26-12.26s-5.5-12.26-12.26-12.26Zm0,19.52H42.63c-4,0-7.26-3.26-7.26-7.26s3.26-7.26,7.26-7.26h214.74c4,0,7.26,3.26,7.26,7.26s-3.26,7.26-7.26,7.26Z"/>
  <path class="uuid-25d14dad-1ad3-475f-b178-143a5b2a6708" d="m107.77,156.24h0s-37.01-81.99-37.01-81.99c-.78-1.72-2.43-2.79-4.31-2.79s-3.54,1.07-4.31,2.79l-37.01,81.99h0c-.14.32-.23.66-.23,1.03,0,22.94,18.64,41.6,41.54,41.6s41.54-18.66,41.54-41.6c0-.37-.08-.71-.23-1.03Zm-41.32-79.39l35.17,77.92H31.28l35.17-77.92Zm0,117.02c-19.31,0-35.17-15.08-36.46-34.1h72.92c-1.29,19.02-17.15,34.1-36.46,34.1Z"/>
  <path class="uuid-25d14dad-1ad3-475f-b178-143a5b2a6708" d="m274.87,156.24h0s-37.01-81.99-37.01-81.99c-.78-1.72-2.43-2.79-4.31-2.79h0c-1.88,0-3.54,1.07-4.31,2.79l-37.01,81.99h0c-.14.32-.23.66-.23,1.03,0,22.94,18.64,41.6,41.54,41.6s41.54-18.66,41.54-41.6c0-.37-.08-.71-.23-1.03Zm-41.32-79.39l35.17,77.92h-70.34l35.17-77.92Zm0,117.02c-19.31,0-35.17-15.08-36.46-34.1h72.92c-1.29,19.02-17.15,34.1-36.46,34.1Z"/>
  <g>
    <path class="uuid-b8cf5c67-abcb-4fb6-8548-fa996dd1d067" d="m120.33,65.65h-58.17c-6.76,0-12.26-5.5-12.26-12.26s5.5-12.26,12.26-12.26h58.17v5h-58.17c-4,0-7.26,3.26-7.26,7.26s3.26,7.26,7.26,7.26h58.17v5Z"/>
    <path class="uuid-b8cf5c67-abcb-4fb6-8548-fa996dd1d067" d="m237.85,65.65h-58.17v-5h58.17c4,0,7.26-3.26,7.26-7.26s-3.26-7.26-7.26-7.26h-58.17v-5h58.17c6.76,0,12.26,5.5,12.26,12.26s-5.5,12.26-12.26,12.26Z"/>
  </g>
  <path class="uuid-25d14dad-1ad3-475f-b178-143a5b2a6708" d="m150,87.17c-18.6,0-33.73-15.15-33.73-33.78s15.13-33.78,33.73-33.78,33.73,15.15,33.73,33.78-15.13,33.78-33.73,33.78Zm0-62.55c-15.84,0-28.73,12.91-28.73,28.78s12.89,28.78,28.73,28.78,28.73-12.91,28.73-28.78-12.89-28.78-28.73-28.78Z"/>
</svg>