<?xml version="1.0" encoding="UTF-8"?>
<svg id="uuid-86b10db2-956f-4fc9-9ff4-bc352cb010f1" data-name="Ebene 1" xmlns="http://www.w3.org/2000/svg" width="500" height="500" viewBox="0 0 500 500">
  <defs>
    <style>
      .uuid-17aef855-f59b-4999-b8a7-be29cd56dc1b {
        fill: #e49d3a;
      }

      .uuid-e71f2eff-b14f-4d2a-9e5f-14d4ae0a2d84 {
        fill: #9747ff;
      }
    </style>
  </defs>
  <path class="uuid-17aef855-f59b-4999-b8a7-be29cd56dc1b" d="m268.6,39.8c-10.57-8.54-21.31-4.2-30.78-.37-9.38,3.79-17.48,7.07-25.77.37-.02-.02-.04-.02-.06-.04-.17-.13-.35-.24-.54-.32,0,0,0,0,0,0-.19-.08-.38-.12-.59-.15-.06,0-.12-.01-.18-.02-.06,0-.12-.02-.19-.02-.1,0-.2.02-.3.03-.05,0-.1,0-.15.01-.21.04-.41.1-.6.19-.01,0-.03,0-.04.01-.03.01-.05.03-.07.05-.16.08-.31.18-.44.29-.04.03-.07.06-.11.09-.15.14-.28.3-.4.47-.02.03-.03.06-.05.09-.09.15-.16.31-.22.48-.02.05-.03.1-.05.15-.05.2-.09.41-.09.63v60.2c0,1.38,1.12,2.5,2.5,2.5s2.5-1.12,2.5-2.5v-17.51c3.15,1.62,6.3,2.28,9.41,2.28,6,0,11.86-2.37,17.3-4.57,9.38-3.79,17.49-7.07,25.77-.37.75.6,1.78.73,2.65.31s1.42-1.29,1.42-2.26v-38.09c0-.75-.34-1.47-.93-1.94Zm-4.07,35.41c-9.23-4.76-18.45-1.03-26.71,2.31-9.03,3.65-16.88,6.82-24.84,1.08v-32.23c9.23,4.76,18.45,1.03,26.71-2.31,9.03-3.65,16.88-6.82,24.84-1.08v32.23Z"/>
  <path class="uuid-17aef855-f59b-4999-b8a7-be29cd56dc1b" d="m423.85,268.56c-.71-.81-.71-2.03,0-2.83,5.98-6.78,9.11-15.5,8.82-24.55-.57-17.99-15.08-33-33.02-34.18-1.22-.08-2.46-.1-3.67-.05-.62,0-1.2-.2-1.64-.62-.45-.44-.7-1.03-.7-1.74,0-19.53-15.89-35.41-35.41-35.41-13.19,0-25.21,7.26-31.36,18.94l4.42,2.33c5.28-10.04,15.6-16.27,26.93-16.27,16.77,0,30.41,13.64,30.41,30.47,0,2.02.79,3.9,2.22,5.29,1.42,1.38,3.32,2.1,5.29,2.02,1.05-.04,2.11-.02,3.16.05,15.41,1.01,27.86,13.9,28.35,29.35.25,7.78-2.44,15.26-7.57,21.08-2.38,2.69-2.38,6.76,0,9.45,4.81,5.45,7.5,12.45,7.59,19.71.1,8.06-3,15.72-8.73,21.58-5.72,5.85-13.3,9.12-21.35,9.21-5.14.04-10.21-1.19-14.7-3.61-1.99-1.07-4.3-1.17-6.33-.27-5.8,2.57-11.98,3.88-18.36,3.88-12.9,0-25.23-5.52-33.83-15.14l-3.73,3.33c6.11,6.83,13.91,11.79,22.48,14.48v81.87c0,4.36,3.55,7.9,7.9,7.9h7.9c4.36,0,7.91-3.55,7.91-7.9v-80.3c4.03-.7,7.96-1.88,11.75-3.56.6-.27,1.31-.23,1.93.1,5.12,2.75,10.91,4.21,16.75,4.21.12,0,.25,0,.38,0,9.38-.1,18.22-3.91,24.87-10.72,6.66-6.81,10.26-15.74,10.15-25.13-.1-8.46-3.24-16.61-8.84-22.96Zm-61.99,138.36c0,1.6-1.3,2.9-2.91,2.9h-7.9c-1.6,0-2.9-1.3-2.9-2.9v-80.58c3.29.67,6.67,1.03,10.08,1.03,1.22,0,2.43-.06,3.63-.14v79.69Z"/>
  <path class="uuid-e71f2eff-b14f-4d2a-9e5f-14d4ae0a2d84" d="m343.52,427.18h-17.94v-216.83h9.8c3.61,0,6.68-2.21,7.82-5.64,1.14-3.43,0-7.04-2.9-9.2l-124.8-93.02c-2.9-2.16-6.95-2.16-9.84,0l-124.8,93.02c-2.9,2.16-4.03,5.77-2.9,9.2,1.14,3.43,4.21,5.64,7.82,5.64h9.8v216.83h-17.94c-4.54,0-8.24,3.69-8.24,8.24v18.93c0,4.54,3.69,8.24,8.24,8.24h265.88c4.54,0,8.24-3.69,8.24-8.24v-18.93c0-4.54-3.69-8.24-8.24-8.24ZM85.78,205.35c-2.17,0-2.9-1.7-3.07-2.22-.17-.52-.6-2.32,1.14-3.61l124.8-93.02c1.16-.86,2.71-.86,3.87,0l124.8,93.02c1.74,1.3,1.31,3.09,1.14,3.61-.17.52-.9,2.22-3.07,2.22H85.78Zm234.81,5v216.6H100.58v-216.6h220.01Zm26.17,244c0,1.78-1.45,3.24-3.24,3.24H77.64c-1.78,0-3.24-1.45-3.24-3.24v-18.93c0-1.78,1.45-3.24,3.24-3.24h265.88c1.78,0,3.24,1.45,3.24,3.24v18.93Z"/>
  <path class="uuid-e71f2eff-b14f-4d2a-9e5f-14d4ae0a2d84" d="m277.98,266.19c3.08,0,5.58-2.5,5.58-5.58v-6.53c0-3.08-2.5-5.58-5.58-5.58h-38.84c-3.08,0-5.58,2.5-5.58,5.58v6.53c0,3.08,2.5,5.58,5.58,5.58h1.72v117.37h-1.72c-3.08,0-5.58,2.5-5.58,5.58v6.53c0,3.08,2.5,5.58,5.58,5.58h38.84c3.08,0,5.58-2.5,5.58-5.58v-6.53c0-3.08-2.5-5.58-5.58-5.58h-1.72v-117.37h1.72Zm-38.84-5c-.32,0-.58-.26-.58-.58v-6.53c0-.32.26-.58.58-.58h38.84c.32,0,.58.26.58.58v6.53c0,.32-.26.58-.58.58h-38.84Zm38.84,127.37c.32,0,.58.26.58.58v6.53c0,.32-.26.58-.58.58h-38.84c-.32,0-.58-.26-.58-.58v-6.53c0-.32.26-.58.58-.58h38.84Zm-6.72-5h-25.4v-117.37h25.4v117.37Z"/>
  <path class="uuid-e71f2eff-b14f-4d2a-9e5f-14d4ae0a2d84" d="m181.87,266.19c3.08,0,5.58-2.5,5.58-5.58v-6.53c0-3.08-2.5-5.58-5.58-5.58h-38.84c-3.08,0-5.58,2.5-5.58,5.58v6.53c0,3.08,2.5,5.58,5.58,5.58h1.72v117.37h-1.72c-3.08,0-5.58,2.5-5.58,5.58v6.53c0,3.08,2.5,5.58,5.58,5.58h38.84c3.08,0,5.58-2.5,5.58-5.58v-6.53c0-3.08-2.5-5.58-5.58-5.58h-1.72v-117.37h1.72Zm-38.84-5c-.32,0-.58-.26-.58-.58v-6.53c0-.32.26-.58.58-.58h38.84c.32,0,.58.26.58.58v6.53c0,.32-.26.58-.58.58h-38.84Zm38.84,127.37c.32,0,.58.26.58.58v6.53c0,.32-.26.58-.58.58h-38.84c-.32,0-.58-.26-.58-.58v-6.53c0-.32.26-.58.58-.58h38.84Zm-6.72-5h-25.4v-117.37h25.4v117.37Z"/>
  <path class="uuid-e71f2eff-b14f-4d2a-9e5f-14d4ae0a2d84" d="m210.58,184.71c-13.12,0-23.79-10.67-23.79-23.79s10.67-23.79,23.79-23.79,23.79,10.67,23.79,23.79-10.67,23.79-23.79,23.79Zm0-42.58c-10.36,0-18.79,8.43-18.79,18.79s8.43,18.79,18.79,18.79,18.79-8.43,18.79-18.79-8.43-18.79-18.79-18.79Z"/>
</svg>